<?xml version='1.0' encoding='utf-8'?>
<svg height="459.70mm" viewBox="0.0 0.0 270.60 459.70" width="270.60mm" xmlns="http://www.w3.org/2000/svg" xmlns:cc="http://creativecommons.org/ns#" xmlns:dc="http://purl.org/dc/elements/1.1/" xmlns:inkscape="http://www.inkscape.org/namespaces/inkscape" xmlns:rdf="http://www.w3.org/1999/02/22-rdf-syntax-ns#" xmlns:svg="http://www.w3.org/2000/svg" xmlns:xlink="http://www.w3.org/1999/xlink">
<!--
SlidingDrawer - Sliding drawer box

Created with Boxes.py (https://festi.info/boxes.py)
Creation date: 2024-02-20 16:08:02
Command line (remove spaces between dashes): boxes SlidingDrawer - -x=120 - -y=120 - -h=50 - -outside=0 - -outside=1
Url: http://www.festi.info/boxes.py/SlidingDrawer?FingerJoint_angle=90.0&FingerJoint_style=rectangular&FingerJoint_surroundingspaces=2.0&FingerJoint_bottom_lip=0.0&FingerJoint_edge_width=1.0&FingerJoint_extra_length=0.0&FingerJoint_finger=2.0&FingerJoint_play=0.0&FingerJoint_space=2.0&FingerJoint_width=1.0&Grooved_arc_angle=120&Grooved_gap=0.1&Grooved_interleave=0&Grooved_inverse=0&Grooved_margin=0.3&Grooved_style=arc&Grooved_tri_angle=30&Grooved_width=0.4&x=120&y=120&h=50&outside=0&outside=1&play=0.15&thickness=3.0&format=svg&tabs=0.0&qr_code=0&debug=0&labels=0&labels=1&reference=100&inner_corners=loop&burn=0.1&language=fr&render=2
Url short: http://www.festi.info/boxes.py/SlidingDrawer?x=120&y=120&h=50&outside=0&outside=1
SettingsUrl: http://www.festi.info/boxes.py/SlidingDrawer?FingerJoint_angle=90.0&FingerJoint_style=rectangular&FingerJoint_surroundingspaces=2.0&FingerJoint_bottom_lip=0.0&FingerJoint_edge_width=1.0&FingerJoint_extra_length=0.0&FingerJoint_finger=2.0&FingerJoint_play=0.0&FingerJoint_space=2.0&FingerJoint_width=1.0&Grooved_arc_angle=120&Grooved_gap=0.1&Grooved_interleave=0&Grooved_inverse=0&Grooved_margin=0.3&Grooved_style=arc&Grooved_tri_angle=30&Grooved_width=0.4&x=120&y=120&h=50&outside=0&outside=1&play=0.15&thickness=3.0&format=svg&tabs=0.0&qr_code=0&debug=0&labels=0&labels=1&reference=100&inner_corners=loop&burn=0.1&language=fr&render=2
SettingsUrl short: http://www.festi.info/boxes.py/SlidingDrawer?x=120&y=120&h=50&outside=0&outside=1
-->
<title>SlidingDrawer</title>
<metadata>
<rdf:RDF><cc:Work>
<dc:title>Box - SlidingDrawer</dc:title>
<dc:date>2024-02-20 16:08:02</dc:date>
<dc:source>http://www.festi.info/boxes.py/SlidingDrawer?FingerJoint_angle=90.0&amp;FingerJoint_style=rectangular&amp;FingerJoint_surroundingspaces=2.0&amp;FingerJoint_bottom_lip=0.0&amp;FingerJoint_edge_width=1.0&amp;FingerJoint_extra_length=0.0&amp;FingerJoint_finger=2.0&amp;FingerJoint_play=0.0&amp;FingerJoint_space=2.0&amp;FingerJoint_width=1.0&amp;Grooved_arc_angle=120&amp;Grooved_gap=0.1&amp;Grooved_interleave=0&amp;Grooved_inverse=0&amp;Grooved_margin=0.3&amp;Grooved_style=arc&amp;Grooved_tri_angle=30&amp;Grooved_width=0.4&amp;x=120&amp;y=120&amp;h=50&amp;outside=0&amp;outside=1&amp;play=0.15&amp;thickness=3.0&amp;format=svg&amp;tabs=0.0&amp;qr_code=0&amp;debug=0&amp;labels=0&amp;labels=1&amp;reference=100&amp;inner_corners=loop&amp;burn=0.1&amp;language=fr&amp;render=2</dc:source>
<dc:source>http://www.festi.info/boxes.py/SlidingDrawer?x=120&amp;y=120&amp;h=50&amp;outside=0&amp;outside=1</dc:source>
<dc:description>Sliding drawer box

Created with Boxes.py (https://festi.info/boxes.py)
Command line: boxes SlidingDrawer --FingerJoint_angle=90.0 --FingerJoint_style=rectangular --FingerJoint_surroundingspaces=2.0 --FingerJoint_bottom_lip=0.0 --FingerJoint_edge_width=1.0 --FingerJoint_extra_length=0.0 --FingerJoint_finger=2.0 --FingerJoint_play=0.0 --FingerJoint_space=2.0 --FingerJoint_width=1.0 --Grooved_arc_angle=120 --Grooved_gap=0.1 --Grooved_interleave=0 --Grooved_inverse=0 --Grooved_margin=0.3 --Grooved_style=arc --Grooved_tri_angle=30 --Grooved_width=0.4 --x=120 --y=120 --h=50 --outside=0 --outside=1 --play=0.15 --thickness=3.0 --format=svg --tabs=0.0 --qr_code=0 --debug=0 --labels=0 --labels=1 --reference=100 --inner_corners=loop --burn=0.1
Command line short: boxes SlidingDrawer --x=120 --y=120 --h=50 --outside=0 --outside=1
Url: http://www.festi.info/boxes.py/SlidingDrawer?FingerJoint_angle=90.0&amp;FingerJoint_style=rectangular&amp;FingerJoint_surroundingspaces=2.0&amp;FingerJoint_bottom_lip=0.0&amp;FingerJoint_edge_width=1.0&amp;FingerJoint_extra_length=0.0&amp;FingerJoint_finger=2.0&amp;FingerJoint_play=0.0&amp;FingerJoint_space=2.0&amp;FingerJoint_width=1.0&amp;Grooved_arc_angle=120&amp;Grooved_gap=0.1&amp;Grooved_interleave=0&amp;Grooved_inverse=0&amp;Grooved_margin=0.3&amp;Grooved_style=arc&amp;Grooved_tri_angle=30&amp;Grooved_width=0.4&amp;x=120&amp;y=120&amp;h=50&amp;outside=0&amp;outside=1&amp;play=0.15&amp;thickness=3.0&amp;format=svg&amp;tabs=0.0&amp;qr_code=0&amp;debug=0&amp;labels=0&amp;labels=1&amp;reference=100&amp;inner_corners=loop&amp;burn=0.1&amp;language=fr&amp;render=2
Url short: http://www.festi.info/boxes.py/SlidingDrawer?x=120&amp;y=120&amp;h=50&amp;outside=0&amp;outside=1
SettingsUrl: http://www.festi.info/boxes.py/SlidingDrawer?FingerJoint_angle=90.0&amp;FingerJoint_style=rectangular&amp;FingerJoint_surroundingspaces=2.0&amp;FingerJoint_bottom_lip=0.0&amp;FingerJoint_edge_width=1.0&amp;FingerJoint_extra_length=0.0&amp;FingerJoint_finger=2.0&amp;FingerJoint_play=0.0&amp;FingerJoint_space=2.0&amp;FingerJoint_width=1.0&amp;Grooved_arc_angle=120&amp;Grooved_gap=0.1&amp;Grooved_interleave=0&amp;Grooved_inverse=0&amp;Grooved_margin=0.3&amp;Grooved_style=arc&amp;Grooved_tri_angle=30&amp;Grooved_width=0.4&amp;x=120&amp;y=120&amp;h=50&amp;outside=0&amp;outside=1&amp;play=0.15&amp;thickness=3.0&amp;format=svg&amp;tabs=0.0&amp;qr_code=0&amp;debug=0&amp;labels=0&amp;labels=1&amp;reference=100&amp;inner_corners=loop&amp;burn=0.1&amp;language=fr&amp;render=2
SettingsUrl short: http://www.festi.info/boxes.py/SlidingDrawer?x=120&amp;y=120&amp;h=50&amp;outside=0&amp;outside=1
</dc:description>
</cc:Work></rdf:RDF></metadata>
<g id="p-0" style="fill:none;stroke-linecap:round;stroke-linejoin:round;">
  <path d="M 18.800 449.700 H 118.800 V 439.700 H 18.800 V 449.700 Z" stroke="rgb(0,0,0)" stroke-width="0.20" />
  <text dominant-baseline="hanging" font-size="8px" style="font-family: sans-serif ; font-weight: normal; font-style: normal; fill: rgb(255,0,0)" text-anchor="middle" transform="matrix( 1.000 0.000 0.000 1.000 68.800 440.700 )">100.00mm, burn:0.10mm</text>
</g>
<g id="p-1" style="fill:none;stroke-linecap:round;stroke-linejoin:round;">
  <text dominant-baseline="hanging" font-size="4px" style="font-family: sans-serif ; font-weight: normal; font-style: normal; fill: rgb(255,0,0)" text-anchor="middle" transform="matrix( 1.000 0.000 0.000 1.000 75.350 414.450 )">in box wall</text><path d="M 21.800 438.000 H 30.350 C 30.405 438.000 30.450 437.955 30.450 437.900 V 435.000 C 30.450 434.900 30.350 435.000 30.450 435.000 H 36.250 C 36.350 435.000 36.250 434.900 36.250 435.000 V 437.900 C 36.250 437.955 36.295 438.000 36.350 438.000 H 42.350 C 42.405 438.000 42.450 437.955 42.450 437.900 V 435.000 C 42.450 434.900 42.350 435.000 42.450 435.000 H 48.250 C 48.350 435.000 48.250 434.900 48.250 435.000 V 437.900 C 48.250 437.955 48.295 438.000 48.350 438.000 H 54.350 C 54.405 438.000 54.450 437.955 54.450 437.900 V 435.000 C 54.450 434.900 54.350 435.000 54.450 435.000 H 60.250 C 60.350 435.000 60.250 434.900 60.250 435.000 V 437.900 C 60.250 437.955 60.295 438.000 60.350 438.000 H 66.350 C 66.405 438.000 66.450 437.955 66.450 437.900 V 435.000 C 66.450 434.900 66.350 435.000 66.450 435.000 H 72.250 C 72.350 435.000 72.250 434.900 72.250 435.000 V 437.900 C 72.250 437.955 72.295 438.000 72.350 438.000 H 78.350 C 78.405 438.000 78.450 437.955 78.450 437.900 V 435.000 C 78.450 434.900 78.350 435.000 78.450 435.000 H 84.250 C 84.350 435.000 84.250 434.900 84.250 435.000 V 437.900 C 84.250 437.955 84.295 438.000 84.350 438.000 H 90.350 C 90.405 438.000 90.450 437.955 90.450 437.900 V 435.000 C 90.450 434.900 90.350 435.000 90.450 435.000 H 96.250 C 96.350 435.000 96.250 434.900 96.250 435.000 V 437.900 C 96.250 437.955 96.295 438.000 96.350 438.000 H 102.350 C 102.405 438.000 102.450 437.955 102.450 437.900 V 435.000 C 102.450 434.900 102.350 435.000 102.450 435.000 H 108.250 C 108.350 435.000 108.250 434.900 108.250 435.000 V 437.900 C 108.250 437.955 108.295 438.000 108.350 438.000 H 114.350 C 114.405 438.000 114.450 437.955 114.450 437.900 V 435.000 C 114.450 434.900 114.350 435.000 114.450 435.000 H 120.250 C 120.350 435.000 120.250 434.900 120.250 435.000 V 437.900 C 120.250 437.955 120.295 438.000 120.350 438.000 H 128.900 H 131.900 C 131.955 438.000 132.000 437.955 132.000 437.900 V 434.900 V 423.850 C 132.000 423.795 131.955 423.750 131.900 423.750 H 129.000 C 128.900 423.750 129.000 423.850 129.000 423.750 V 417.950 C 129.000 417.850 128.900 417.950 129.000 417.950 H 131.900 C 131.955 417.950 132.000 417.905 132.000 417.850 V 411.850 C 132.000 411.795 131.955 411.750 131.900 411.750 H 129.000 C 128.900 411.750 129.000 411.850 129.000 411.750 V 405.950 C 129.000 405.850 128.900 405.950 129.000 405.950 H 131.900 C 131.955 405.950 132.000 405.905 132.000 405.850 V 394.800 C 132.000 394.745 131.955 394.700 131.900 394.700 H 128.900 H 96.770 C 96.734 394.700 96.701 394.719 96.683 394.750 C 94.521 398.495 91.412 401.604 87.667 403.767 C 83.922 405.929 79.674 407.067 75.350 407.067 C 71.026 407.067 66.778 405.929 63.033 403.767 C 59.288 401.604 56.179 398.495 54.017 394.750 C 53.999 394.719 53.966 394.700 53.930 394.700 H 21.800 H 18.800 C 18.745 394.700 18.700 394.745 18.700 394.800 V 405.850 C 18.700 405.905 18.745 405.950 18.800 405.950 H 21.700 C 21.800 405.950 21.700 405.850 21.700 405.950 V 411.750 C 21.700 411.850 21.800 411.750 21.700 411.750 H 18.800 C 18.745 411.750 18.700 411.795 18.700 411.850 V 417.850 C 18.700 417.905 18.745 417.950 18.800 417.950 H 21.700 C 21.800 417.950 21.700 417.850 21.700 417.950 V 423.750 C 21.700 423.850 21.800 423.750 21.700 423.750 H 18.800 C 18.745 423.750 18.700 423.795 18.700 423.850 V 434.900 V 437.900 C 18.700 437.955 18.745 438.000 18.800 438.000 H 21.800" stroke="rgb(0,0,0)" stroke-width="0.20" />
</g>
<g id="p-2" style="fill:none;stroke-linecap:round;stroke-linejoin:round;">
  <text dominant-baseline="hanging" font-size="4px" style="font-family: sans-serif ; font-weight: normal; font-style: normal; fill: rgb(255,0,0)" text-anchor="middle" transform="matrix( 1.000 0.000 0.000 1.000 191.650 414.450 )">in box wall</text><path d="M 136.600 435.000 H 146.550 C 146.650 435.000 146.550 434.900 146.550 435.000 V 437.900 C 146.550 437.955 146.595 438.000 146.650 438.000 H 152.650 C 152.705 438.000 152.750 437.955 152.750 437.900 V 435.000 C 152.750 434.900 152.650 435.000 152.750 435.000 H 158.550 C 158.650 435.000 158.550 434.900 158.550 435.000 V 437.900 C 158.550 437.955 158.595 438.000 158.650 438.000 H 164.650 C 164.705 438.000 164.750 437.955 164.750 437.900 V 435.000 C 164.750 434.900 164.650 435.000 164.750 435.000 H 170.550 C 170.650 435.000 170.550 434.900 170.550 435.000 V 437.900 C 170.550 437.955 170.595 438.000 170.650 438.000 H 176.650 C 176.705 438.000 176.750 437.955 176.750 437.900 V 435.000 C 176.750 434.900 176.650 435.000 176.750 435.000 H 182.550 C 182.650 435.000 182.550 434.900 182.550 435.000 V 437.900 C 182.550 437.955 182.595 438.000 182.650 438.000 H 188.650 C 188.705 438.000 188.750 437.955 188.750 437.900 V 435.000 C 188.750 434.900 188.650 435.000 188.750 435.000 H 194.550 C 194.650 435.000 194.550 434.900 194.550 435.000 V 437.900 C 194.550 437.955 194.595 438.000 194.650 438.000 H 200.650 C 200.705 438.000 200.750 437.955 200.750 437.900 V 435.000 C 200.750 434.900 200.650 435.000 200.750 435.000 H 206.550 C 206.650 435.000 206.550 434.900 206.550 435.000 V 437.900 C 206.550 437.955 206.595 438.000 206.650 438.000 H 212.650 C 212.705 438.000 212.750 437.955 212.750 437.900 V 435.000 C 212.750 434.900 212.650 435.000 212.750 435.000 H 218.550 C 218.650 435.000 218.550 434.900 218.550 435.000 V 437.900 C 218.550 437.955 218.595 438.000 218.650 438.000 H 224.650 C 224.705 438.000 224.750 437.955 224.750 437.900 V 435.000 C 224.750 434.900 224.650 435.000 224.750 435.000 H 230.550 C 230.650 435.000 230.550 434.900 230.550 435.000 V 437.900 C 230.550 437.955 230.595 438.000 230.650 438.000 H 236.650 C 236.705 438.000 236.750 437.955 236.750 437.900 V 435.000 C 236.750 434.900 236.650 435.000 236.750 435.000 H 246.700 C 246.755 435.000 246.800 434.955 246.800 434.900 V 423.950 C 246.800 423.850 246.700 423.950 246.800 423.950 H 249.700 C 249.755 423.950 249.800 423.905 249.800 423.850 V 417.850 C 249.800 417.795 249.755 417.750 249.700 417.750 H 246.800 C 246.700 417.750 246.800 417.850 246.800 417.750 V 411.950 C 246.800 411.850 246.700 411.950 246.800 411.950 H 249.700 C 249.755 411.950 249.800 411.905 249.800 411.850 V 405.850 C 249.800 405.795 249.755 405.750 249.700 405.750 H 246.800 C 246.700 405.750 246.800 405.850 246.800 405.750 V 394.800 C 246.800 394.745 246.755 394.700 246.700 394.700 H 136.600 C 136.545 394.700 136.500 394.745 136.500 394.800 V 405.750 C 136.500 405.850 136.600 405.750 136.500 405.750 H 133.600 C 133.545 405.750 133.500 405.795 133.500 405.850 V 411.850 C 133.500 411.905 133.545 411.950 133.600 411.950 H 136.500 C 136.600 411.950 136.500 411.850 136.500 411.950 V 417.750 C 136.500 417.850 136.600 417.750 136.500 417.750 H 133.600 C 133.545 417.750 133.500 417.795 133.500 417.850 V 423.850 C 133.500 423.905 133.545 423.950 133.600 423.950 H 136.500 C 136.600 423.950 136.500 423.850 136.500 423.950 V 434.900 C 136.500 434.955 136.545 435.000 136.600 435.000" stroke="rgb(0,0,0)" stroke-width="0.20" />
</g>
<g id="p-3" style="fill:none;stroke-linecap:round;stroke-linejoin:round;">
  <text dominant-baseline="hanging" font-size="4px" style="font-family: sans-serif ; font-weight: normal; font-style: normal; fill: rgb(255,0,0)" text-anchor="middle" transform="matrix( 1.000 0.000 0.000 1.000 191.650 369.650 )">in box wall</text><path d="M 136.600 390.200 H 146.550 C 146.650 390.200 146.550 390.100 146.550 390.200 V 393.100 C 146.550 393.155 146.595 393.200 146.650 393.200 H 152.650 C 152.705 393.200 152.750 393.155 152.750 393.100 V 390.200 C 152.750 390.100 152.650 390.200 152.750 390.200 H 158.550 C 158.650 390.200 158.550 390.100 158.550 390.200 V 393.100 C 158.550 393.155 158.595 393.200 158.650 393.200 H 164.650 C 164.705 393.200 164.750 393.155 164.750 393.100 V 390.200 C 164.750 390.100 164.650 390.200 164.750 390.200 H 170.550 C 170.650 390.200 170.550 390.100 170.550 390.200 V 393.100 C 170.550 393.155 170.595 393.200 170.650 393.200 H 176.650 C 176.705 393.200 176.750 393.155 176.750 393.100 V 390.200 C 176.750 390.100 176.650 390.200 176.750 390.200 H 182.550 C 182.650 390.200 182.550 390.100 182.550 390.200 V 393.100 C 182.550 393.155 182.595 393.200 182.650 393.200 H 188.650 C 188.705 393.200 188.750 393.155 188.750 393.100 V 390.200 C 188.750 390.100 188.650 390.200 188.750 390.200 H 194.550 C 194.650 390.200 194.550 390.100 194.550 390.200 V 393.100 C 194.550 393.155 194.595 393.200 194.650 393.200 H 200.650 C 200.705 393.200 200.750 393.155 200.750 393.100 V 390.200 C 200.750 390.100 200.650 390.200 200.750 390.200 H 206.550 C 206.650 390.200 206.550 390.100 206.550 390.200 V 393.100 C 206.550 393.155 206.595 393.200 206.650 393.200 H 212.650 C 212.705 393.200 212.750 393.155 212.750 393.100 V 390.200 C 212.750 390.100 212.650 390.200 212.750 390.200 H 218.550 C 218.650 390.200 218.550 390.100 218.550 390.200 V 393.100 C 218.550 393.155 218.595 393.200 218.650 393.200 H 224.650 C 224.705 393.200 224.750 393.155 224.750 393.100 V 390.200 C 224.750 390.100 224.650 390.200 224.750 390.200 H 230.550 C 230.650 390.200 230.550 390.100 230.550 390.200 V 393.100 C 230.550 393.155 230.595 393.200 230.650 393.200 H 236.650 C 236.705 393.200 236.750 393.155 236.750 393.100 V 390.200 C 236.750 390.100 236.650 390.200 236.750 390.200 H 246.700 C 246.755 390.200 246.800 390.155 246.800 390.100 V 379.150 C 246.800 379.050 246.700 379.150 246.800 379.150 H 249.700 C 249.755 379.150 249.800 379.105 249.800 379.050 V 373.050 C 249.800 372.995 249.755 372.950 249.700 372.950 H 246.800 C 246.700 372.950 246.800 373.050 246.800 372.950 V 367.150 C 246.800 367.050 246.700 367.150 246.800 367.150 H 249.700 C 249.755 367.150 249.800 367.105 249.800 367.050 V 361.050 C 249.800 360.995 249.755 360.950 249.700 360.950 H 246.800 C 246.700 360.950 246.800 361.050 246.800 360.950 V 350.000 C 246.800 349.945 246.755 349.900 246.700 349.900 H 136.600 C 136.545 349.900 136.500 349.945 136.500 350.000 V 360.950 C 136.500 361.050 136.600 360.950 136.500 360.950 H 133.600 C 133.545 360.950 133.500 360.995 133.500 361.050 V 367.050 C 133.500 367.105 133.545 367.150 133.600 367.150 H 136.500 C 136.600 367.150 136.500 367.050 136.500 367.150 V 372.950 C 136.500 373.050 136.600 372.950 136.500 372.950 H 133.600 C 133.545 372.950 133.500 372.995 133.500 373.050 V 379.050 C 133.500 379.105 133.545 379.150 133.600 379.150 H 136.500 C 136.600 379.150 136.500 379.050 136.500 379.150 V 390.100 C 136.500 390.155 136.545 390.200 136.600 390.200" stroke="rgb(0,0,0)" stroke-width="0.20" />
</g>
<g id="p-4" style="fill:none;stroke-linecap:round;stroke-linejoin:round;">
  <text dominant-baseline="hanging" font-size="4px" style="font-family: sans-serif ; font-weight: normal; font-style: normal; fill: rgb(255,0,0)" text-anchor="middle" transform="matrix( 1.000 0.000 0.000 1.000 75.350 369.650 )">in box wall</text><path d="M 21.800 393.200 H 30.350 C 30.405 393.200 30.450 393.155 30.450 393.100 V 390.200 C 30.450 390.100 30.350 390.200 30.450 390.200 H 36.250 C 36.350 390.200 36.250 390.100 36.250 390.200 V 393.100 C 36.250 393.155 36.295 393.200 36.350 393.200 H 42.350 C 42.405 393.200 42.450 393.155 42.450 393.100 V 390.200 C 42.450 390.100 42.350 390.200 42.450 390.200 H 48.250 C 48.350 390.200 48.250 390.100 48.250 390.200 V 393.100 C 48.250 393.155 48.295 393.200 48.350 393.200 H 54.350 C 54.405 393.200 54.450 393.155 54.450 393.100 V 390.200 C 54.450 390.100 54.350 390.200 54.450 390.200 H 60.250 C 60.350 390.200 60.250 390.100 60.250 390.200 V 393.100 C 60.250 393.155 60.295 393.200 60.350 393.200 H 66.350 C 66.405 393.200 66.450 393.155 66.450 393.100 V 390.200 C 66.450 390.100 66.350 390.200 66.450 390.200 H 72.250 C 72.350 390.200 72.250 390.100 72.250 390.200 V 393.100 C 72.250 393.155 72.295 393.200 72.350 393.200 H 78.350 C 78.405 393.200 78.450 393.155 78.450 393.100 V 390.200 C 78.450 390.100 78.350 390.200 78.450 390.200 H 84.250 C 84.350 390.200 84.250 390.100 84.250 390.200 V 393.100 C 84.250 393.155 84.295 393.200 84.350 393.200 H 90.350 C 90.405 393.200 90.450 393.155 90.450 393.100 V 390.200 C 90.450 390.100 90.350 390.200 90.450 390.200 H 96.250 C 96.350 390.200 96.250 390.100 96.250 390.200 V 393.100 C 96.250 393.155 96.295 393.200 96.350 393.200 H 102.350 C 102.405 393.200 102.450 393.155 102.450 393.100 V 390.200 C 102.450 390.100 102.350 390.200 102.450 390.200 H 108.250 C 108.350 390.200 108.250 390.100 108.250 390.200 V 393.100 C 108.250 393.155 108.295 393.200 108.350 393.200 H 114.350 C 114.405 393.200 114.450 393.155 114.450 393.100 V 390.200 C 114.450 390.100 114.350 390.200 114.450 390.200 H 120.250 C 120.350 390.200 120.250 390.100 120.250 390.200 V 393.100 C 120.250 393.155 120.295 393.200 120.350 393.200 H 128.900 H 131.900 C 131.955 393.200 132.000 393.155 132.000 393.100 V 390.100 V 379.050 C 132.000 378.995 131.955 378.950 131.900 378.950 H 129.000 C 128.900 378.950 129.000 379.050 129.000 378.950 V 373.150 C 129.000 373.050 128.900 373.150 129.000 373.150 H 131.900 C 131.955 373.150 132.000 373.105 132.000 373.050 V 367.050 C 132.000 366.995 131.955 366.950 131.900 366.950 H 129.000 C 128.900 366.950 129.000 367.050 129.000 366.950 V 361.150 C 129.000 361.050 128.900 361.150 129.000 361.150 H 131.900 C 131.955 361.150 132.000 361.105 132.000 361.050 V 350.000 C 132.000 349.945 131.955 349.900 131.900 349.900 H 128.900 H 21.800 H 18.800 C 18.745 349.900 18.700 349.945 18.700 350.000 V 361.050 C 18.700 361.105 18.745 361.150 18.800 361.150 H 21.700 C 21.800 361.150 21.700 361.050 21.700 361.150 V 366.950 C 21.700 367.050 21.800 366.950 21.700 366.950 H 18.800 C 18.745 366.950 18.700 366.995 18.700 367.050 V 373.050 C 18.700 373.105 18.745 373.150 18.800 373.150 H 21.700 C 21.800 373.150 21.700 373.050 21.700 373.150 V 378.950 C 21.700 379.050 21.800 378.950 21.700 378.950 H 18.800 C 18.745 378.950 18.700 378.995 18.700 379.050 V 390.100 V 393.100 C 18.700 393.155 18.745 393.200 18.800 393.200 H 21.800" stroke="rgb(0,0,0)" stroke-width="0.20" />
</g>
<g id="p-5" style="fill:none;stroke-linecap:round;stroke-linejoin:round;">
  <text dominant-baseline="hanging" font-size="4px" style="font-family: sans-serif ; font-weight: normal; font-style: normal; fill: rgb(255,0,0)" text-anchor="middle" transform="matrix( 1.000 0.000 0.000 1.000 76.850 289.850 )">in box bottom</text><path d="M 21.800 348.400 H 31.850 C 31.905 348.400 31.950 348.355 31.950 348.300 V 345.400 C 31.950 345.300 31.850 345.400 31.950 345.400 H 37.750 C 37.850 345.400 37.750 345.300 37.750 345.400 V 348.300 C 37.750 348.355 37.795 348.400 37.850 348.400 H 43.850 C 43.905 348.400 43.950 348.355 43.950 348.300 V 345.400 C 43.950 345.300 43.850 345.400 43.950 345.400 H 49.750 C 49.850 345.400 49.750 345.300 49.750 345.400 V 348.300 C 49.750 348.355 49.795 348.400 49.850 348.400 H 55.850 C 55.905 348.400 55.950 348.355 55.950 348.300 V 345.400 C 55.950 345.300 55.850 345.400 55.950 345.400 H 61.750 C 61.850 345.400 61.750 345.300 61.750 345.400 V 348.300 C 61.750 348.355 61.795 348.400 61.850 348.400 H 67.850 C 67.905 348.400 67.950 348.355 67.950 348.300 V 345.400 C 67.950 345.300 67.850 345.400 67.950 345.400 H 73.750 C 73.850 345.400 73.750 345.300 73.750 345.400 V 348.300 C 73.750 348.355 73.795 348.400 73.850 348.400 H 79.850 C 79.905 348.400 79.950 348.355 79.950 348.300 V 345.400 C 79.950 345.300 79.850 345.400 79.950 345.400 H 85.750 C 85.850 345.400 85.750 345.300 85.750 345.400 V 348.300 C 85.750 348.355 85.795 348.400 85.850 348.400 H 91.850 C 91.905 348.400 91.950 348.355 91.950 348.300 V 345.400 C 91.950 345.300 91.850 345.400 91.950 345.400 H 97.750 C 97.850 345.400 97.750 345.300 97.750 345.400 V 348.300 C 97.750 348.355 97.795 348.400 97.850 348.400 H 103.850 C 103.905 348.400 103.950 348.355 103.950 348.300 V 345.400 C 103.950 345.300 103.850 345.400 103.950 345.400 H 109.750 C 109.850 345.400 109.750 345.300 109.750 345.400 V 348.300 C 109.750 348.355 109.795 348.400 109.850 348.400 H 115.850 C 115.905 348.400 115.950 348.355 115.950 348.300 V 345.400 C 115.950 345.300 115.850 345.400 115.950 345.400 H 121.750 C 121.850 345.400 121.750 345.300 121.750 345.400 V 348.300 C 121.750 348.355 121.795 348.400 121.850 348.400 H 131.900 C 131.955 348.400 132.000 348.355 132.000 348.300 V 345.300 V 336.850 C 132.000 336.750 131.900 336.850 132.000 336.850 H 134.900 C 134.955 336.850 135.000 336.805 135.000 336.750 V 330.750 C 135.000 330.695 134.955 330.650 134.900 330.650 H 132.000 C 131.900 330.650 132.000 330.750 132.000 330.650 V 324.850 C 132.000 324.750 131.900 324.850 132.000 324.850 H 134.900 C 134.955 324.850 135.000 324.805 135.000 324.750 V 318.750 C 135.000 318.695 134.955 318.650 134.900 318.650 H 132.000 C 131.900 318.650 132.000 318.750 132.000 318.650 V 312.850 C 132.000 312.750 131.900 312.850 132.000 312.850 H 134.900 C 134.955 312.850 135.000 312.805 135.000 312.750 V 306.750 C 135.000 306.695 134.955 306.650 134.900 306.650 H 132.000 C 131.900 306.650 132.000 306.750 132.000 306.650 V 300.850 C 132.000 300.750 131.900 300.850 132.000 300.850 H 134.900 C 134.955 300.850 135.000 300.805 135.000 300.750 V 294.750 C 135.000 294.695 134.955 294.650 134.900 294.650 H 132.000 C 131.900 294.650 132.000 294.750 132.000 294.650 V 288.850 C 132.000 288.750 131.900 288.850 132.000 288.850 H 134.900 C 134.955 288.850 135.000 288.805 135.000 288.750 V 282.750 C 135.000 282.695 134.955 282.650 134.900 282.650 H 132.000 C 131.900 282.650 132.000 282.750 132.000 282.650 V 276.850 C 132.000 276.750 131.900 276.850 132.000 276.850 H 134.900 C 134.955 276.850 135.000 276.805 135.000 276.750 V 270.750 C 135.000 270.695 134.955 270.650 134.900 270.650 H 132.000 C 131.900 270.650 132.000 270.750 132.000 270.650 V 264.850 C 132.000 264.750 131.900 264.850 132.000 264.850 H 134.900 C 134.955 264.850 135.000 264.805 135.000 264.750 V 258.750 C 135.000 258.695 134.955 258.650 134.900 258.650 H 132.000 C 131.900 258.650 132.000 258.750 132.000 258.650 V 252.850 C 132.000 252.750 131.900 252.850 132.000 252.850 H 134.900 C 134.955 252.850 135.000 252.805 135.000 252.750 V 246.750 C 135.000 246.695 134.955 246.650 134.900 246.650 H 132.000 C 131.900 246.650 132.000 246.750 132.000 246.650 V 238.200 V 235.200 C 132.000 235.145 131.955 235.100 131.900 235.100 H 121.850 C 121.795 235.100 121.750 235.145 121.750 235.200 V 238.100 C 121.750 238.200 121.850 238.100 121.750 238.100 H 115.950 C 115.850 238.100 115.950 238.200 115.950 238.100 V 235.200 C 115.950 235.145 115.905 235.100 115.850 235.100 H 109.850 C 109.795 235.100 109.750 235.145 109.750 235.200 V 238.100 C 109.750 238.200 109.850 238.100 109.750 238.100 H 103.950 C 103.850 238.100 103.950 238.200 103.950 238.100 V 235.200 C 103.950 235.145 103.905 235.100 103.850 235.100 H 97.850 C 97.795 235.100 97.750 235.145 97.750 235.200 V 238.100 C 97.750 238.200 97.850 238.100 97.750 238.100 H 91.950 C 91.850 238.100 91.950 238.200 91.950 238.100 V 235.200 C 91.950 235.145 91.905 235.100 91.850 235.100 H 85.850 C 85.795 235.100 85.750 235.145 85.750 235.200 V 238.100 C 85.750 238.200 85.850 238.100 85.750 238.100 H 79.950 C 79.850 238.100 79.950 238.200 79.950 238.100 V 235.200 C 79.950 235.145 79.905 235.100 79.850 235.100 H 73.850 C 73.795 235.100 73.750 235.145 73.750 235.200 V 238.100 C 73.750 238.200 73.850 238.100 73.750 238.100 H 67.950 C 67.850 238.100 67.950 238.200 67.950 238.100 V 235.200 C 67.950 235.145 67.905 235.100 67.850 235.100 H 61.850 C 61.795 235.100 61.750 235.145 61.750 235.200 V 238.100 C 61.750 238.200 61.850 238.100 61.750 238.100 H 55.950 C 55.850 238.100 55.950 238.200 55.950 238.100 V 235.200 C 55.950 235.145 55.905 235.100 55.850 235.100 H 49.850 C 49.795 235.100 49.750 235.145 49.750 235.200 V 238.100 C 49.750 238.200 49.850 238.100 49.750 238.100 H 43.950 C 43.850 238.100 43.950 238.200 43.950 238.100 V 235.200 C 43.950 235.145 43.905 235.100 43.850 235.100 H 37.850 C 37.795 235.100 37.750 235.145 37.750 235.200 V 238.100 C 37.750 238.200 37.850 238.100 37.750 238.100 H 31.950 C 31.850 238.100 31.950 238.200 31.950 238.100 V 235.200 C 31.950 235.145 31.905 235.100 31.850 235.100 H 21.800 C 21.745 235.100 21.700 235.145 21.700 235.200 V 238.200 V 246.650 C 21.700 246.750 21.800 246.650 21.700 246.650 H 18.800 C 18.745 246.650 18.700 246.695 18.700 246.750 V 252.750 C 18.700 252.805 18.745 252.850 18.800 252.850 H 21.700 C 21.800 252.850 21.700 252.750 21.700 252.850 V 258.650 C 21.700 258.750 21.800 258.650 21.700 258.650 H 18.800 C 18.745 258.650 18.700 258.695 18.700 258.750 V 264.750 C 18.700 264.805 18.745 264.850 18.800 264.850 H 21.700 C 21.800 264.850 21.700 264.750 21.700 264.850 V 270.650 C 21.700 270.750 21.800 270.650 21.700 270.650 H 18.800 C 18.745 270.650 18.700 270.695 18.700 270.750 V 276.750 C 18.700 276.805 18.745 276.850 18.800 276.850 H 21.700 C 21.800 276.850 21.700 276.750 21.700 276.850 V 282.650 C 21.700 282.750 21.800 282.650 21.700 282.650 H 18.800 C 18.745 282.650 18.700 282.695 18.700 282.750 V 288.750 C 18.700 288.805 18.745 288.850 18.800 288.850 H 21.700 C 21.800 288.850 21.700 288.750 21.700 288.850 V 294.650 C 21.700 294.750 21.800 294.650 21.700 294.650 H 18.800 C 18.745 294.650 18.700 294.695 18.700 294.750 V 300.750 C 18.700 300.805 18.745 300.850 18.800 300.850 H 21.700 C 21.800 300.850 21.700 300.750 21.700 300.850 V 306.650 C 21.700 306.750 21.800 306.650 21.700 306.650 H 18.800 C 18.745 306.650 18.700 306.695 18.700 306.750 V 312.750 C 18.700 312.805 18.745 312.850 18.800 312.850 H 21.700 C 21.800 312.850 21.700 312.750 21.700 312.850 V 318.650 C 21.700 318.750 21.800 318.650 21.700 318.650 H 18.800 C 18.745 318.650 18.700 318.695 18.700 318.750 V 324.750 C 18.700 324.805 18.745 324.850 18.800 324.850 H 21.700 C 21.800 324.850 21.700 324.750 21.700 324.850 V 330.650 C 21.700 330.750 21.800 330.650 21.700 330.650 H 18.800 C 18.745 330.650 18.700 330.695 18.700 330.750 V 336.750 C 18.700 336.805 18.745 336.850 18.800 336.850 H 21.700 C 21.800 336.850 21.700 336.750 21.700 336.850 V 345.300 V 348.300 C 21.700 348.355 21.745 348.400 21.800 348.400" stroke="rgb(0,0,0)" stroke-width="0.20" />
</g>
<g id="p-6" style="fill:none;stroke-linecap:round;stroke-linejoin:round;">
  <text dominant-baseline="hanging" font-size="4px" style="font-family: sans-serif ; font-weight: normal; font-style: normal; fill: rgb(255,0,0)" text-anchor="middle" transform="matrix( 1.000 0.000 0.000 1.000 78.800 171.600 )">out box bottom</text><path d="M 18.800 233.600 H 26.300 C 26.355 233.600 26.400 233.555 26.400 233.500 V 230.600 C 26.400 230.500 26.300 230.600 26.400 230.600 H 32.200 C 32.300 230.600 32.200 230.500 32.200 230.600 V 233.500 C 32.200 233.555 32.245 233.600 32.300 233.600 H 38.300 C 38.355 233.600 38.400 233.555 38.400 233.500 V 230.600 C 38.400 230.500 38.300 230.600 38.400 230.600 H 44.200 C 44.300 230.600 44.200 230.500 44.200 230.600 V 233.500 C 44.200 233.555 44.245 233.600 44.300 233.600 H 50.300 C 50.355 233.600 50.400 233.555 50.400 233.500 V 230.600 C 50.400 230.500 50.300 230.600 50.400 230.600 H 56.200 C 56.300 230.600 56.200 230.500 56.200 230.600 V 233.500 C 56.200 233.555 56.245 233.600 56.300 233.600 H 62.300 C 62.355 233.600 62.400 233.555 62.400 233.500 V 230.600 C 62.400 230.500 62.300 230.600 62.400 230.600 H 68.200 C 68.300 230.600 68.200 230.500 68.200 230.600 V 233.500 C 68.200 233.555 68.245 233.600 68.300 233.600 H 74.300 C 74.355 233.600 74.400 233.555 74.400 233.500 V 230.600 C 74.400 230.500 74.300 230.600 74.400 230.600 H 80.200 C 80.300 230.600 80.200 230.500 80.200 230.600 V 233.500 C 80.200 233.555 80.245 233.600 80.300 233.600 H 86.300 C 86.355 233.600 86.400 233.555 86.400 233.500 V 230.600 C 86.400 230.500 86.300 230.600 86.400 230.600 H 92.200 C 92.300 230.600 92.200 230.500 92.200 230.600 V 233.500 C 92.200 233.555 92.245 233.600 92.300 233.600 H 98.300 C 98.355 233.600 98.400 233.555 98.400 233.500 V 230.600 C 98.400 230.500 98.300 230.600 98.400 230.600 H 104.200 C 104.300 230.600 104.200 230.500 104.200 230.600 V 233.500 C 104.200 233.555 104.245 233.600 104.300 233.600 H 110.300 C 110.355 233.600 110.400 233.555 110.400 233.500 V 230.600 C 110.400 230.500 110.300 230.600 110.400 230.600 H 116.200 C 116.300 230.600 116.200 230.500 116.200 230.600 V 233.500 C 116.200 233.555 116.245 233.600 116.300 233.600 H 122.300 C 122.355 233.600 122.400 233.555 122.400 233.500 V 230.600 C 122.400 230.500 122.300 230.600 122.400 230.600 H 128.200 C 128.300 230.600 128.200 230.500 128.200 230.600 V 233.500 C 128.200 233.555 128.245 233.600 128.300 233.600 H 135.800 H 138.800 C 138.855 233.600 138.900 233.555 138.900 233.500 V 230.500 V 224.500 C 138.900 224.445 138.855 224.400 138.800 224.400 H 135.900 C 135.800 224.400 135.900 224.500 135.900 224.400 V 218.600 C 135.900 218.500 135.800 218.600 135.900 218.600 H 138.800 C 138.855 218.600 138.900 218.555 138.900 218.500 V 212.500 C 138.900 212.445 138.855 212.400 138.800 212.400 H 135.900 C 135.800 212.400 135.900 212.500 135.900 212.400 V 206.600 C 135.900 206.500 135.800 206.600 135.900 206.600 H 138.800 C 138.855 206.600 138.900 206.555 138.900 206.500 V 200.500 C 138.900 200.445 138.855 200.400 138.800 200.400 H 135.900 C 135.800 200.400 135.900 200.500 135.900 200.400 V 194.600 C 135.900 194.500 135.800 194.600 135.900 194.600 H 138.800 C 138.855 194.600 138.900 194.555 138.900 194.500 V 188.500 C 138.900 188.445 138.855 188.400 138.800 188.400 H 135.900 C 135.800 188.400 135.900 188.500 135.900 188.400 V 182.600 C 135.900 182.500 135.800 182.600 135.900 182.600 H 138.800 C 138.855 182.600 138.900 182.555 138.900 182.500 V 176.500 C 138.900 176.445 138.855 176.400 138.800 176.400 H 135.900 C 135.800 176.400 135.900 176.500 135.900 176.400 V 170.600 C 135.900 170.500 135.800 170.600 135.900 170.600 H 138.800 C 138.855 170.600 138.900 170.555 138.900 170.500 V 164.500 C 138.900 164.445 138.855 164.400 138.800 164.400 H 135.900 C 135.800 164.400 135.900 164.500 135.900 164.400 V 158.600 C 135.900 158.500 135.800 158.600 135.900 158.600 H 138.800 C 138.855 158.600 138.900 158.555 138.900 158.500 V 152.500 C 138.900 152.445 138.855 152.400 138.800 152.400 H 135.900 C 135.800 152.400 135.900 152.500 135.900 152.400 V 146.600 C 135.900 146.500 135.800 146.600 135.900 146.600 H 138.800 C 138.855 146.600 138.900 146.555 138.900 146.500 V 140.500 C 138.900 140.445 138.855 140.400 138.800 140.400 H 135.900 C 135.800 140.400 135.900 140.500 135.900 140.400 V 134.600 C 135.900 134.500 135.800 134.600 135.900 134.600 H 138.800 C 138.855 134.600 138.900 134.555 138.900 134.500 V 128.500 C 138.900 128.445 138.855 128.400 138.800 128.400 H 135.900 C 135.800 128.400 135.900 128.500 135.900 128.400 V 122.600 C 135.900 122.500 135.800 122.600 135.900 122.600 H 138.800 C 138.855 122.600 138.900 122.555 138.900 122.500 V 116.500 V 113.500 C 138.900 113.445 138.855 113.400 138.800 113.400 H 135.800 H 128.300 C 128.245 113.400 128.200 113.445 128.200 113.500 V 116.400 C 128.200 116.500 128.300 116.400 128.200 116.400 H 122.400 C 122.300 116.400 122.400 116.500 122.400 116.400 V 113.500 C 122.400 113.445 122.355 113.400 122.300 113.400 H 116.300 C 116.245 113.400 116.200 113.445 116.200 113.500 V 116.400 C 116.200 116.500 116.300 116.400 116.200 116.400 H 110.400 C 110.300 116.400 110.400 116.500 110.400 116.400 V 113.500 C 110.400 113.445 110.355 113.400 110.300 113.400 H 104.300 C 104.245 113.400 104.200 113.445 104.200 113.500 V 116.400 C 104.200 116.500 104.300 116.400 104.200 116.400 H 98.400 C 98.300 116.400 98.400 116.500 98.400 116.400 V 113.500 C 98.400 113.445 98.355 113.400 98.300 113.400 H 92.300 C 92.245 113.400 92.200 113.445 92.200 113.500 V 116.400 C 92.200 116.500 92.300 116.400 92.200 116.400 H 86.400 C 86.300 116.400 86.400 116.500 86.400 116.400 V 113.500 C 86.400 113.445 86.355 113.400 86.300 113.400 H 80.300 C 80.245 113.400 80.200 113.445 80.200 113.500 V 116.400 C 80.200 116.500 80.300 116.400 80.200 116.400 H 74.400 C 74.300 116.400 74.400 116.500 74.400 116.400 V 113.500 C 74.400 113.445 74.355 113.400 74.300 113.400 H 68.300 C 68.245 113.400 68.200 113.445 68.200 113.500 V 116.400 C 68.200 116.500 68.300 116.400 68.200 116.400 H 62.400 C 62.300 116.400 62.400 116.500 62.400 116.400 V 113.500 C 62.400 113.445 62.355 113.400 62.300 113.400 H 56.300 C 56.245 113.400 56.200 113.445 56.200 113.500 V 116.400 C 56.200 116.500 56.300 116.400 56.200 116.400 H 50.400 C 50.300 116.400 50.400 116.500 50.400 116.400 V 113.500 C 50.400 113.445 50.355 113.400 50.300 113.400 H 44.300 C 44.245 113.400 44.200 113.445 44.200 113.500 V 116.400 C 44.200 116.500 44.300 116.400 44.200 116.400 H 38.400 C 38.300 116.400 38.400 116.500 38.400 116.400 V 113.500 C 38.400 113.445 38.355 113.400 38.300 113.400 H 32.300 C 32.245 113.400 32.200 113.445 32.200 113.500 V 116.400 C 32.200 116.500 32.300 116.400 32.200 116.400 H 26.400 C 26.300 116.400 26.400 116.500 26.400 116.400 V 113.500 C 26.400 113.445 26.355 113.400 26.300 113.400 H 18.800 C 18.745 113.400 18.700 113.445 18.700 113.500 V 116.500 V 230.500 V 233.500 C 18.700 233.555 18.745 233.600 18.800 233.600" stroke="rgb(0,0,0)" stroke-width="0.20" />
</g>
<g id="p-7" style="fill:none;stroke-linecap:round;stroke-linejoin:round;">
  <text dominant-baseline="hanging" font-size="4px" style="font-family: sans-serif ; font-weight: normal; font-style: normal; fill: rgb(255,0,0)" text-anchor="middle" transform="matrix( 1.000 0.000 0.000 1.000 200.500 171.600 )">out box top</text><path d="M 140.500 233.600 H 148.000 C 148.055 233.600 148.100 233.555 148.100 233.500 V 230.600 C 148.100 230.500 148.000 230.600 148.100 230.600 H 153.900 C 154.000 230.600 153.900 230.500 153.900 230.600 V 233.500 C 153.900 233.555 153.945 233.600 154.000 233.600 H 160.000 C 160.055 233.600 160.100 233.555 160.100 233.500 V 230.600 C 160.100 230.500 160.000 230.600 160.100 230.600 H 165.900 C 166.000 230.600 165.900 230.500 165.900 230.600 V 233.500 C 165.900 233.555 165.945 233.600 166.000 233.600 H 172.000 C 172.055 233.600 172.100 233.555 172.100 233.500 V 230.600 C 172.100 230.500 172.000 230.600 172.100 230.600 H 177.900 C 178.000 230.600 177.900 230.500 177.900 230.600 V 233.500 C 177.900 233.555 177.945 233.600 178.000 233.600 H 184.000 C 184.055 233.600 184.100 233.555 184.100 233.500 V 230.600 C 184.100 230.500 184.000 230.600 184.100 230.600 H 189.900 C 190.000 230.600 189.900 230.500 189.900 230.600 V 233.500 C 189.900 233.555 189.945 233.600 190.000 233.600 H 196.000 C 196.055 233.600 196.100 233.555 196.100 233.500 V 230.600 C 196.100 230.500 196.000 230.600 196.100 230.600 H 201.900 C 202.000 230.600 201.900 230.500 201.900 230.600 V 233.500 C 201.900 233.555 201.945 233.600 202.000 233.600 H 208.000 C 208.055 233.600 208.100 233.555 208.100 233.500 V 230.600 C 208.100 230.500 208.000 230.600 208.100 230.600 H 213.900 C 214.000 230.600 213.900 230.500 213.900 230.600 V 233.500 C 213.900 233.555 213.945 233.600 214.000 233.600 H 220.000 C 220.055 233.600 220.100 233.555 220.100 233.500 V 230.600 C 220.100 230.500 220.000 230.600 220.100 230.600 H 225.900 C 226.000 230.600 225.900 230.500 225.900 230.600 V 233.500 C 225.900 233.555 225.945 233.600 226.000 233.600 H 232.000 C 232.055 233.600 232.100 233.555 232.100 233.500 V 230.600 C 232.100 230.500 232.000 230.600 232.100 230.600 H 237.900 C 238.000 230.600 237.900 230.500 237.900 230.600 V 233.500 C 237.900 233.555 237.945 233.600 238.000 233.600 H 244.000 C 244.055 233.600 244.100 233.555 244.100 233.500 V 230.600 C 244.100 230.500 244.000 230.600 244.100 230.600 H 249.900 C 250.000 230.600 249.900 230.500 249.900 230.600 V 233.500 C 249.900 233.555 249.945 233.600 250.000 233.600 H 257.500 H 260.500 C 260.555 233.600 260.600 233.555 260.600 233.500 V 230.500 V 224.500 C 260.600 224.445 260.555 224.400 260.500 224.400 H 257.600 C 257.500 224.400 257.600 224.500 257.600 224.400 V 218.600 C 257.600 218.500 257.500 218.600 257.600 218.600 H 260.500 C 260.555 218.600 260.600 218.555 260.600 218.500 V 212.500 C 260.600 212.445 260.555 212.400 260.500 212.400 H 257.600 C 257.500 212.400 257.600 212.500 257.600 212.400 V 206.600 C 257.600 206.500 257.500 206.600 257.600 206.600 H 260.500 C 260.555 206.600 260.600 206.555 260.600 206.500 V 200.500 C 260.600 200.445 260.555 200.400 260.500 200.400 H 257.600 C 257.500 200.400 257.600 200.500 257.600 200.400 V 194.600 C 257.600 194.500 257.500 194.600 257.600 194.600 H 260.500 C 260.555 194.600 260.600 194.555 260.600 194.500 V 188.500 C 260.600 188.445 260.555 188.400 260.500 188.400 H 257.600 C 257.500 188.400 257.600 188.500 257.600 188.400 V 182.600 C 257.600 182.500 257.500 182.600 257.600 182.600 H 260.500 C 260.555 182.600 260.600 182.555 260.600 182.500 V 176.500 C 260.600 176.445 260.555 176.400 260.500 176.400 H 257.600 C 257.500 176.400 257.600 176.500 257.600 176.400 V 170.600 C 257.600 170.500 257.500 170.600 257.600 170.600 H 260.500 C 260.555 170.600 260.600 170.555 260.600 170.500 V 164.500 C 260.600 164.445 260.555 164.400 260.500 164.400 H 257.600 C 257.500 164.400 257.600 164.500 257.600 164.400 V 158.600 C 257.600 158.500 257.500 158.600 257.600 158.600 H 260.500 C 260.555 158.600 260.600 158.555 260.600 158.500 V 152.500 C 260.600 152.445 260.555 152.400 260.500 152.400 H 257.600 C 257.500 152.400 257.600 152.500 257.600 152.400 V 146.600 C 257.600 146.500 257.500 146.600 257.600 146.600 H 260.500 C 260.555 146.600 260.600 146.555 260.600 146.500 V 140.500 C 260.600 140.445 260.555 140.400 260.500 140.400 H 257.600 C 257.500 140.400 257.600 140.500 257.600 140.400 V 134.600 C 257.600 134.500 257.500 134.600 257.600 134.600 H 260.500 C 260.555 134.600 260.600 134.555 260.600 134.500 V 128.500 C 260.600 128.445 260.555 128.400 260.500 128.400 H 257.600 C 257.500 128.400 257.600 128.500 257.600 128.400 V 122.600 C 257.600 122.500 257.500 122.600 257.600 122.600 H 260.500 C 260.555 122.600 260.600 122.555 260.600 122.500 V 116.500 V 113.500 C 260.600 113.445 260.555 113.400 260.500 113.400 H 257.500 H 250.000 C 249.945 113.400 249.900 113.445 249.900 113.500 V 116.400 C 249.900 116.500 250.000 116.400 249.900 116.400 H 244.100 C 244.000 116.400 244.100 116.500 244.100 116.400 V 113.500 C 244.100 113.445 244.055 113.400 244.000 113.400 H 238.000 C 237.945 113.400 237.900 113.445 237.900 113.500 V 116.400 C 237.900 116.500 238.000 116.400 237.900 116.400 H 232.100 C 232.000 116.400 232.100 116.500 232.100 116.400 V 113.500 C 232.100 113.445 232.055 113.400 232.000 113.400 H 226.000 C 225.945 113.400 225.900 113.445 225.900 113.500 V 116.400 C 225.900 116.500 226.000 116.400 225.900 116.400 H 220.100 C 220.000 116.400 220.100 116.500 220.100 116.400 V 113.500 C 220.100 113.445 220.055 113.400 220.000 113.400 H 214.000 C 213.945 113.400 213.900 113.445 213.900 113.500 V 116.400 C 213.900 116.500 214.000 116.400 213.900 116.400 H 208.100 C 208.000 116.400 208.100 116.500 208.100 116.400 V 113.500 C 208.100 113.445 208.055 113.400 208.000 113.400 H 202.000 C 201.945 113.400 201.900 113.445 201.900 113.500 V 116.400 C 201.900 116.500 202.000 116.400 201.900 116.400 H 196.100 C 196.000 116.400 196.100 116.500 196.100 116.400 V 113.500 C 196.100 113.445 196.055 113.400 196.000 113.400 H 190.000 C 189.945 113.400 189.900 113.445 189.900 113.500 V 116.400 C 189.900 116.500 190.000 116.400 189.900 116.400 H 184.100 C 184.000 116.400 184.100 116.500 184.100 116.400 V 113.500 C 184.100 113.445 184.055 113.400 184.000 113.400 H 178.000 C 177.945 113.400 177.900 113.445 177.900 113.500 V 116.400 C 177.900 116.500 178.000 116.400 177.900 116.400 H 172.100 C 172.000 116.400 172.100 116.500 172.100 116.400 V 113.500 C 172.100 113.445 172.055 113.400 172.000 113.400 H 166.000 C 165.945 113.400 165.900 113.445 165.900 113.500 V 116.400 C 165.900 116.500 166.000 116.400 165.900 116.400 H 160.100 C 160.000 116.400 160.100 116.500 160.100 116.400 V 113.500 C 160.100 113.445 160.055 113.400 160.000 113.400 H 154.000 C 153.945 113.400 153.900 113.445 153.900 113.500 V 116.400 C 153.900 116.500 154.000 116.400 153.900 116.400 H 148.100 C 148.000 116.400 148.100 116.500 148.100 116.400 V 113.500 C 148.100 113.445 148.055 113.400 148.000 113.400 H 140.500 C 140.445 113.400 140.400 113.445 140.400 113.500 V 116.500 V 230.500 V 233.500 C 140.400 233.555 140.445 233.600 140.500 233.600" stroke="rgb(0,0,0)" stroke-width="0.20" />
</g>
<g id="p-8" style="fill:none;stroke-linecap:round;stroke-linejoin:round;">
  <text dominant-baseline="hanging" font-size="4px" style="font-family: sans-serif ; font-weight: normal; font-style: normal; fill: rgb(255,0,0)" text-anchor="middle" transform="matrix( 1.000 0.000 0.000 1.000 200.500 84.900 )">out box wall</text><path d="M 140.500 108.900 H 147.900 C 148.000 108.900 147.900 108.800 147.900 108.900 V 111.800 C 147.900 111.855 147.945 111.900 148.000 111.900 H 154.000 C 154.055 111.900 154.100 111.855 154.100 111.800 V 108.900 C 154.100 108.800 154.000 108.900 154.100 108.900 H 159.900 C 160.000 108.900 159.900 108.800 159.900 108.900 V 111.800 C 159.900 111.855 159.945 111.900 160.000 111.900 H 166.000 C 166.055 111.900 166.100 111.855 166.100 111.800 V 108.900 C 166.100 108.800 166.000 108.900 166.100 108.900 H 171.900 C 172.000 108.900 171.900 108.800 171.900 108.900 V 111.800 C 171.900 111.855 171.945 111.900 172.000 111.900 H 178.000 C 178.055 111.900 178.100 111.855 178.100 111.800 V 108.900 C 178.100 108.800 178.000 108.900 178.100 108.900 H 183.900 C 184.000 108.900 183.900 108.800 183.900 108.900 V 111.800 C 183.900 111.855 183.945 111.900 184.000 111.900 H 190.000 C 190.055 111.900 190.100 111.855 190.100 111.800 V 108.900 C 190.100 108.800 190.000 108.900 190.100 108.900 H 195.900 C 196.000 108.900 195.900 108.800 195.900 108.900 V 111.800 C 195.900 111.855 195.945 111.900 196.000 111.900 H 202.000 C 202.055 111.900 202.100 111.855 202.100 111.800 V 108.900 C 202.100 108.800 202.000 108.900 202.100 108.900 H 207.900 C 208.000 108.900 207.900 108.800 207.900 108.900 V 111.800 C 207.900 111.855 207.945 111.900 208.000 111.900 H 214.000 C 214.055 111.900 214.100 111.855 214.100 111.800 V 108.900 C 214.100 108.800 214.000 108.900 214.100 108.900 H 219.900 C 220.000 108.900 219.900 108.800 219.900 108.900 V 111.800 C 219.900 111.855 219.945 111.900 220.000 111.900 H 226.000 C 226.055 111.900 226.100 111.855 226.100 111.800 V 108.900 C 226.100 108.800 226.000 108.900 226.100 108.900 H 231.900 C 232.000 108.900 231.900 108.800 231.900 108.900 V 111.800 C 231.900 111.855 231.945 111.900 232.000 111.900 H 238.000 C 238.055 111.900 238.100 111.855 238.100 111.800 V 108.900 C 238.100 108.800 238.000 108.900 238.100 108.900 H 243.900 C 244.000 108.900 243.900 108.800 243.900 108.900 V 111.800 C 243.900 111.855 243.945 111.900 244.000 111.900 H 250.000 C 250.055 111.900 250.100 111.855 250.100 111.800 V 108.900 C 250.100 108.800 250.000 108.900 250.100 108.900 H 257.500 C 257.555 108.900 257.600 108.855 257.600 108.800 V 101.900 C 257.600 101.800 257.500 101.900 257.600 101.900 H 260.500 C 260.555 101.900 260.600 101.855 260.600 101.800 V 95.800 C 260.600 95.745 260.555 95.700 260.500 95.700 H 257.600 C 257.500 95.700 257.600 95.800 257.600 95.700 V 89.900 C 257.600 89.800 257.500 89.900 257.600 89.900 H 260.500 C 260.555 89.900 260.600 89.855 260.600 89.800 V 83.800 C 260.600 83.745 260.555 83.700 260.500 83.700 H 257.600 C 257.500 83.700 257.600 83.800 257.600 83.700 V 77.900 C 257.600 77.800 257.500 77.900 257.600 77.900 H 260.500 C 260.555 77.900 260.600 77.855 260.600 77.800 V 71.800 C 260.600 71.745 260.555 71.700 260.500 71.700 H 257.600 C 257.500 71.700 257.600 71.800 257.600 71.700 V 64.800 C 257.600 64.745 257.555 64.700 257.500 64.700 H 250.100 C 250.000 64.700 250.100 64.800 250.100 64.700 V 61.800 C 250.100 61.745 250.055 61.700 250.000 61.700 H 244.000 C 243.945 61.700 243.900 61.745 243.900 61.800 V 64.700 C 243.900 64.800 244.000 64.700 243.900 64.700 H 238.100 C 238.000 64.700 238.100 64.800 238.100 64.700 V 61.800 C 238.100 61.745 238.055 61.700 238.000 61.700 H 232.000 C 231.945 61.700 231.900 61.745 231.900 61.800 V 64.700 C 231.900 64.800 232.000 64.700 231.900 64.700 H 226.100 C 226.000 64.700 226.100 64.800 226.100 64.700 V 61.800 C 226.100 61.745 226.055 61.700 226.000 61.700 H 220.000 C 219.945 61.700 219.900 61.745 219.900 61.800 V 64.700 C 219.900 64.800 220.000 64.700 219.900 64.700 H 214.100 C 214.000 64.700 214.100 64.800 214.100 64.700 V 61.800 C 214.100 61.745 214.055 61.700 214.000 61.700 H 208.000 C 207.945 61.700 207.900 61.745 207.900 61.800 V 64.700 C 207.900 64.800 208.000 64.700 207.900 64.700 H 202.100 C 202.000 64.700 202.100 64.800 202.100 64.700 V 61.800 C 202.100 61.745 202.055 61.700 202.000 61.700 H 196.000 C 195.945 61.700 195.900 61.745 195.900 61.800 V 64.700 C 195.900 64.800 196.000 64.700 195.900 64.700 H 190.100 C 190.000 64.700 190.100 64.800 190.100 64.700 V 61.800 C 190.100 61.745 190.055 61.700 190.000 61.700 H 184.000 C 183.945 61.700 183.900 61.745 183.900 61.800 V 64.700 C 183.900 64.800 184.000 64.700 183.900 64.700 H 178.100 C 178.000 64.700 178.100 64.800 178.100 64.700 V 61.800 C 178.100 61.745 178.055 61.700 178.000 61.700 H 172.000 C 171.945 61.700 171.900 61.745 171.900 61.800 V 64.700 C 171.900 64.800 172.000 64.700 171.900 64.700 H 166.100 C 166.000 64.700 166.100 64.800 166.100 64.700 V 61.800 C 166.100 61.745 166.055 61.700 166.000 61.700 H 160.000 C 159.945 61.700 159.900 61.745 159.900 61.800 V 64.700 C 159.900 64.800 160.000 64.700 159.900 64.700 H 154.100 C 154.000 64.700 154.100 64.800 154.100 64.700 V 61.800 C 154.100 61.745 154.055 61.700 154.000 61.700 H 148.000 C 147.945 61.700 147.900 61.745 147.900 61.800 V 64.700 C 147.900 64.800 148.000 64.700 147.900 64.700 H 140.500 C 140.445 64.700 140.400 64.745 140.400 64.800 V 108.800 C 140.400 108.855 140.445 108.900 140.500 108.900" stroke="rgb(0,0,0)" stroke-width="0.20" />
</g>
<g id="p-9" style="fill:none;stroke-linecap:round;stroke-linejoin:round;">
  <text dominant-baseline="hanging" font-size="4px" style="font-family: sans-serif ; font-weight: normal; font-style: normal; fill: rgb(255,0,0)" text-anchor="middle" transform="matrix( 1.000 0.000 0.000 1.000 78.800 84.900 )">out box wall</text><path d="M 18.800 108.900 H 26.200 C 26.300 108.900 26.200 108.800 26.200 108.900 V 111.800 C 26.200 111.855 26.245 111.900 26.300 111.900 H 32.300 C 32.355 111.900 32.400 111.855 32.400 111.800 V 108.900 C 32.400 108.800 32.300 108.900 32.400 108.900 H 38.200 C 38.300 108.900 38.200 108.800 38.200 108.900 V 111.800 C 38.200 111.855 38.245 111.900 38.300 111.900 H 44.300 C 44.355 111.900 44.400 111.855 44.400 111.800 V 108.900 C 44.400 108.800 44.300 108.900 44.400 108.900 H 50.200 C 50.300 108.900 50.200 108.800 50.200 108.900 V 111.800 C 50.200 111.855 50.245 111.900 50.300 111.900 H 56.300 C 56.355 111.900 56.400 111.855 56.400 111.800 V 108.900 C 56.400 108.800 56.300 108.900 56.400 108.900 H 62.200 C 62.300 108.900 62.200 108.800 62.200 108.900 V 111.800 C 62.200 111.855 62.245 111.900 62.300 111.900 H 68.300 C 68.355 111.900 68.400 111.855 68.400 111.800 V 108.900 C 68.400 108.800 68.300 108.900 68.400 108.900 H 74.200 C 74.300 108.900 74.200 108.800 74.200 108.900 V 111.800 C 74.200 111.855 74.245 111.900 74.300 111.900 H 80.300 C 80.355 111.900 80.400 111.855 80.400 111.800 V 108.900 C 80.400 108.800 80.300 108.900 80.400 108.900 H 86.200 C 86.300 108.900 86.200 108.800 86.200 108.900 V 111.800 C 86.200 111.855 86.245 111.900 86.300 111.900 H 92.300 C 92.355 111.900 92.400 111.855 92.400 111.800 V 108.900 C 92.400 108.800 92.300 108.900 92.400 108.900 H 98.200 C 98.300 108.900 98.200 108.800 98.200 108.900 V 111.800 C 98.200 111.855 98.245 111.900 98.300 111.900 H 104.300 C 104.355 111.900 104.400 111.855 104.400 111.800 V 108.900 C 104.400 108.800 104.300 108.900 104.400 108.900 H 110.200 C 110.300 108.900 110.200 108.800 110.200 108.900 V 111.800 C 110.200 111.855 110.245 111.900 110.300 111.900 H 116.300 C 116.355 111.900 116.400 111.855 116.400 111.800 V 108.900 C 116.400 108.800 116.300 108.900 116.400 108.900 H 122.200 C 122.300 108.900 122.200 108.800 122.200 108.900 V 111.800 C 122.200 111.855 122.245 111.900 122.300 111.900 H 128.300 C 128.355 111.900 128.400 111.855 128.400 111.800 V 108.900 C 128.400 108.800 128.300 108.900 128.400 108.900 H 135.800 C 135.855 108.900 135.900 108.855 135.900 108.800 V 101.900 C 135.900 101.800 135.800 101.900 135.900 101.900 H 138.800 C 138.855 101.900 138.900 101.855 138.900 101.800 V 95.800 C 138.900 95.745 138.855 95.700 138.800 95.700 H 135.900 C 135.800 95.700 135.900 95.800 135.900 95.700 V 89.900 C 135.900 89.800 135.800 89.900 135.900 89.900 H 138.800 C 138.855 89.900 138.900 89.855 138.900 89.800 V 83.800 C 138.900 83.745 138.855 83.700 138.800 83.700 H 135.900 C 135.800 83.700 135.900 83.800 135.900 83.700 V 77.900 C 135.900 77.800 135.800 77.900 135.900 77.900 H 138.800 C 138.855 77.900 138.900 77.855 138.900 77.800 V 71.800 C 138.900 71.745 138.855 71.700 138.800 71.700 H 135.900 C 135.800 71.700 135.900 71.800 135.900 71.700 V 64.800 C 135.900 64.745 135.855 64.700 135.800 64.700 H 128.400 C 128.300 64.700 128.400 64.800 128.400 64.700 V 61.800 C 128.400 61.745 128.355 61.700 128.300 61.700 H 122.300 C 122.245 61.700 122.200 61.745 122.200 61.800 V 64.700 C 122.200 64.800 122.300 64.700 122.200 64.700 H 116.400 C 116.300 64.700 116.400 64.800 116.400 64.700 V 61.800 C 116.400 61.745 116.355 61.700 116.300 61.700 H 110.300 C 110.245 61.700 110.200 61.745 110.200 61.800 V 64.700 C 110.200 64.800 110.300 64.700 110.200 64.700 H 104.400 C 104.300 64.700 104.400 64.800 104.400 64.700 V 61.800 C 104.400 61.745 104.355 61.700 104.300 61.700 H 98.300 C 98.245 61.700 98.200 61.745 98.200 61.800 V 64.700 C 98.200 64.800 98.300 64.700 98.200 64.700 H 92.400 C 92.300 64.700 92.400 64.800 92.400 64.700 V 61.800 C 92.400 61.745 92.355 61.700 92.300 61.700 H 86.300 C 86.245 61.700 86.200 61.745 86.200 61.800 V 64.700 C 86.200 64.800 86.300 64.700 86.200 64.700 H 80.400 C 80.300 64.700 80.400 64.800 80.400 64.700 V 61.800 C 80.400 61.745 80.355 61.700 80.300 61.700 H 74.300 C 74.245 61.700 74.200 61.745 74.200 61.800 V 64.700 C 74.200 64.800 74.300 64.700 74.200 64.700 H 68.400 C 68.300 64.700 68.400 64.800 68.400 64.700 V 61.800 C 68.400 61.745 68.355 61.700 68.300 61.700 H 62.300 C 62.245 61.700 62.200 61.745 62.200 61.800 V 64.700 C 62.200 64.800 62.300 64.700 62.200 64.700 H 56.400 C 56.300 64.700 56.400 64.800 56.400 64.700 V 61.800 C 56.400 61.745 56.355 61.700 56.300 61.700 H 50.300 C 50.245 61.700 50.200 61.745 50.200 61.800 V 64.700 C 50.200 64.800 50.300 64.700 50.200 64.700 H 44.400 C 44.300 64.700 44.400 64.800 44.400 64.700 V 61.800 C 44.400 61.745 44.355 61.700 44.300 61.700 H 38.300 C 38.245 61.700 38.200 61.745 38.200 61.800 V 64.700 C 38.200 64.800 38.300 64.700 38.200 64.700 H 32.400 C 32.300 64.700 32.400 64.800 32.400 64.700 V 61.800 C 32.400 61.745 32.355 61.700 32.300 61.700 H 26.300 C 26.245 61.700 26.200 61.745 26.200 61.800 V 64.700 C 26.200 64.800 26.300 64.700 26.200 64.700 H 18.800 C 18.745 64.700 18.700 64.745 18.700 64.800 V 108.800 C 18.700 108.855 18.745 108.900 18.800 108.900" stroke="rgb(0,0,0)" stroke-width="0.20" />
</g>
<g id="p-10" style="fill:none;stroke-linecap:round;stroke-linejoin:round;">
  <text dominant-baseline="hanging" font-size="4px" style="font-family: sans-serif ; font-weight: normal; font-style: normal; fill: rgb(255,0,0)" text-anchor="middle" transform="matrix( 1.000 0.000 0.000 1.000 78.800 33.200 )">out box wall</text><path d="M 21.800 57.200 H 27.700 C 27.800 57.200 27.700 57.100 27.700 57.200 V 60.100 C 27.700 60.155 27.745 60.200 27.800 60.200 H 33.800 C 33.855 60.200 33.900 60.155 33.900 60.100 V 57.200 C 33.900 57.100 33.800 57.200 33.900 57.200 H 39.700 C 39.800 57.200 39.700 57.100 39.700 57.200 V 60.100 C 39.700 60.155 39.745 60.200 39.800 60.200 H 45.800 C 45.855 60.200 45.900 60.155 45.900 60.100 V 57.200 C 45.900 57.100 45.800 57.200 45.900 57.200 H 51.700 C 51.800 57.200 51.700 57.100 51.700 57.200 V 60.100 C 51.700 60.155 51.745 60.200 51.800 60.200 H 57.800 C 57.855 60.200 57.900 60.155 57.900 60.100 V 57.200 C 57.900 57.100 57.800 57.200 57.900 57.200 H 63.700 C 63.800 57.200 63.700 57.100 63.700 57.200 V 60.100 C 63.700 60.155 63.745 60.200 63.800 60.200 H 69.800 C 69.855 60.200 69.900 60.155 69.900 60.100 V 57.200 C 69.900 57.100 69.800 57.200 69.900 57.200 H 75.700 C 75.800 57.200 75.700 57.100 75.700 57.200 V 60.100 C 75.700 60.155 75.745 60.200 75.800 60.200 H 81.800 C 81.855 60.200 81.900 60.155 81.900 60.100 V 57.200 C 81.900 57.100 81.800 57.200 81.900 57.200 H 87.700 C 87.800 57.200 87.700 57.100 87.700 57.200 V 60.100 C 87.700 60.155 87.745 60.200 87.800 60.200 H 93.800 C 93.855 60.200 93.900 60.155 93.900 60.100 V 57.200 C 93.900 57.100 93.800 57.200 93.900 57.200 H 99.700 C 99.800 57.200 99.700 57.100 99.700 57.200 V 60.100 C 99.700 60.155 99.745 60.200 99.800 60.200 H 105.800 C 105.855 60.200 105.900 60.155 105.900 60.100 V 57.200 C 105.900 57.100 105.800 57.200 105.900 57.200 H 111.700 C 111.800 57.200 111.700 57.100 111.700 57.200 V 60.100 C 111.700 60.155 111.745 60.200 111.800 60.200 H 117.800 C 117.855 60.200 117.900 60.155 117.900 60.100 V 57.200 C 117.900 57.100 117.800 57.200 117.900 57.200 H 123.700 C 123.800 57.200 123.700 57.100 123.700 57.200 V 60.100 C 123.700 60.155 123.745 60.200 123.800 60.200 H 129.800 C 129.855 60.200 129.900 60.155 129.900 60.100 V 57.200 C 129.900 57.100 129.800 57.200 129.900 57.200 H 135.800 H 138.800 C 138.855 57.200 138.900 57.155 138.900 57.100 V 50.100 C 138.900 50.045 138.855 50.000 138.800 50.000 H 135.900 C 135.800 50.000 135.900 50.100 135.900 50.000 V 44.200 C 135.900 44.100 135.800 44.200 135.900 44.200 H 138.800 C 138.855 44.200 138.900 44.155 138.900 44.100 V 38.100 C 138.900 38.045 138.855 38.000 138.800 38.000 H 135.900 C 135.800 38.000 135.900 38.100 135.900 38.000 V 32.200 C 135.900 32.100 135.800 32.200 135.900 32.200 H 138.800 C 138.855 32.200 138.900 32.155 138.900 32.100 V 26.100 C 138.900 26.045 138.855 26.000 138.800 26.000 H 135.900 C 135.800 26.000 135.900 26.100 135.900 26.000 V 20.200 C 135.900 20.100 135.800 20.200 135.900 20.200 H 138.800 C 138.855 20.200 138.900 20.155 138.900 20.100 V 13.100 C 138.900 13.045 138.855 13.000 138.800 13.000 H 135.800 H 129.900 C 129.800 13.000 129.900 13.100 129.900 13.000 V 10.100 C 129.900 10.045 129.855 10.000 129.800 10.000 H 123.800 C 123.745 10.000 123.700 10.045 123.700 10.100 V 13.000 C 123.700 13.100 123.800 13.000 123.700 13.000 H 117.900 C 117.800 13.000 117.900 13.100 117.900 13.000 V 10.100 C 117.900 10.045 117.855 10.000 117.800 10.000 H 111.800 C 111.745 10.000 111.700 10.045 111.700 10.100 V 13.000 C 111.700 13.100 111.800 13.000 111.700 13.000 H 105.900 C 105.800 13.000 105.900 13.100 105.900 13.000 V 10.100 C 105.900 10.045 105.855 10.000 105.800 10.000 H 99.800 C 99.745 10.000 99.700 10.045 99.700 10.100 V 13.000 C 99.700 13.100 99.800 13.000 99.700 13.000 H 93.900 C 93.800 13.000 93.900 13.100 93.900 13.000 V 10.100 C 93.900 10.045 93.855 10.000 93.800 10.000 H 87.800 C 87.745 10.000 87.700 10.045 87.700 10.100 V 13.000 C 87.700 13.100 87.800 13.000 87.700 13.000 H 81.900 C 81.800 13.000 81.900 13.100 81.900 13.000 V 10.100 C 81.900 10.045 81.855 10.000 81.800 10.000 H 75.800 C 75.745 10.000 75.700 10.045 75.700 10.100 V 13.000 C 75.700 13.100 75.800 13.000 75.700 13.000 H 69.900 C 69.800 13.000 69.900 13.100 69.900 13.000 V 10.100 C 69.900 10.045 69.855 10.000 69.800 10.000 H 63.800 C 63.745 10.000 63.700 10.045 63.700 10.100 V 13.000 C 63.700 13.100 63.800 13.000 63.700 13.000 H 57.900 C 57.800 13.000 57.900 13.100 57.900 13.000 V 10.100 C 57.900 10.045 57.855 10.000 57.800 10.000 H 51.800 C 51.745 10.000 51.700 10.045 51.700 10.100 V 13.000 C 51.700 13.100 51.800 13.000 51.700 13.000 H 45.900 C 45.800 13.000 45.900 13.100 45.900 13.000 V 10.100 C 45.900 10.045 45.855 10.000 45.800 10.000 H 39.800 C 39.745 10.000 39.700 10.045 39.700 10.100 V 13.000 C 39.700 13.100 39.800 13.000 39.700 13.000 H 33.900 C 33.800 13.000 33.900 13.100 33.900 13.000 V 10.100 C 33.900 10.045 33.855 10.000 33.800 10.000 H 27.800 C 27.745 10.000 27.700 10.045 27.700 10.100 V 13.000 C 27.700 13.100 27.800 13.000 27.700 13.000 H 21.800 H 18.800 C 18.745 13.000 18.700 13.045 18.700 13.100 V 20.100 C 18.700 20.155 18.745 20.200 18.800 20.200 H 21.700 C 21.800 20.200 21.700 20.100 21.700 20.200 V 26.000 C 21.700 26.100 21.800 26.000 21.700 26.000 H 18.800 C 18.745 26.000 18.700 26.045 18.700 26.100 V 32.100 C 18.700 32.155 18.745 32.200 18.800 32.200 H 21.700 C 21.800 32.200 21.700 32.100 21.700 32.200 V 38.000 C 21.700 38.100 21.800 38.000 21.700 38.000 H 18.800 C 18.745 38.000 18.700 38.045 18.700 38.100 V 44.100 C 18.700 44.155 18.745 44.200 18.800 44.200 H 21.700 C 21.800 44.200 21.700 44.100 21.700 44.200 V 50.000 C 21.700 50.100 21.800 50.000 21.700 50.000 H 18.800 C 18.745 50.000 18.700 50.045 18.700 50.100 V 57.100 C 18.700 57.155 18.745 57.200 18.800 57.200 H 21.800" stroke="rgb(0,0,0)" stroke-width="0.20" />
</g>
</svg>