<?xml version='1.0' encoding='utf-8'?>
<svg height="468.30mm" viewBox="0.0 0.0 551.60 468.30" width="551.60mm" xmlns="http://www.w3.org/2000/svg" xmlns:cc="http://creativecommons.org/ns#" xmlns:dc="http://purl.org/dc/elements/1.1/" xmlns:inkscape="http://www.inkscape.org/namespaces/inkscape" xmlns:rdf="http://www.w3.org/1999/02/22-rdf-syntax-ns#" xmlns:svg="http://www.w3.org/2000/svg" xmlns:xlink="http://www.w3.org/1999/xlink">
<!--
ClosedBox - Fully closed box


This box is more of a building block than a finished item.
Use a vector graphics program (like Inkscape) to add holes or adjust the base
plate.

See BasedBox for variant with a base.


Created with Boxes.py (https://festi.info/boxes.py)
Creation date: 2024-02-22 09:08:48
Command line (remove spaces between dashes): boxes ClosedBox - -x=250 - -y=200 - -outside=0 - -thickness=5
Url: http://www.festi.info/boxes.py/ClosedBox?FingerJoint_angle=90.0&FingerJoint_style=rectangular&FingerJoint_surroundingspaces=2.0&FingerJoint_bottom_lip=0.0&FingerJoint_edge_width=1.0&FingerJoint_extra_length=0.0&FingerJoint_finger=2.0&FingerJoint_play=0.0&FingerJoint_space=2.0&FingerJoint_width=1.0&x=250&y=200&h=100&outside=0&thickness=5&format=svg&tabs=0.0&qr_code=0&debug=0&labels=0&labels=1&reference=100&inner_corners=loop&burn=0.1&language=fr&render=2
Url short: http://www.festi.info/boxes.py/ClosedBox?x=250&y=200&outside=0&thickness=5
SettingsUrl: http://www.festi.info/boxes.py/ClosedBox?FingerJoint_angle=90.0&FingerJoint_style=rectangular&FingerJoint_surroundingspaces=2.0&FingerJoint_bottom_lip=0.0&FingerJoint_edge_width=1.0&FingerJoint_extra_length=0.0&FingerJoint_finger=2.0&FingerJoint_play=0.0&FingerJoint_space=2.0&FingerJoint_width=1.0&x=250&y=200&h=100&outside=0&thickness=5&format=svg&tabs=0.0&qr_code=0&debug=0&labels=0&labels=1&reference=100&inner_corners=loop&burn=0.1&language=fr&render=2
SettingsUrl short: http://www.festi.info/boxes.py/ClosedBox?x=250&y=200&outside=0&thickness=5
-->
<title>ClosedBox</title>
<metadata>
<rdf:RDF><cc:Work>
<dc:title>Box - ClosedBox</dc:title>
<dc:date>2024-02-22 09:08:48</dc:date>
<dc:source>http://www.festi.info/boxes.py/ClosedBox?FingerJoint_angle=90.0&amp;FingerJoint_style=rectangular&amp;FingerJoint_surroundingspaces=2.0&amp;FingerJoint_bottom_lip=0.0&amp;FingerJoint_edge_width=1.0&amp;FingerJoint_extra_length=0.0&amp;FingerJoint_finger=2.0&amp;FingerJoint_play=0.0&amp;FingerJoint_space=2.0&amp;FingerJoint_width=1.0&amp;x=250&amp;y=200&amp;h=100&amp;outside=0&amp;thickness=5&amp;format=svg&amp;tabs=0.0&amp;qr_code=0&amp;debug=0&amp;labels=0&amp;labels=1&amp;reference=100&amp;inner_corners=loop&amp;burn=0.1&amp;language=fr&amp;render=2</dc:source>
<dc:source>http://www.festi.info/boxes.py/ClosedBox?x=250&amp;y=200&amp;outside=0&amp;thickness=5</dc:source>
<dc:description>Fully closed box

This box is more of a building block than a finished item.
Use a vector graphics program (like Inkscape) to add holes or adjust the base
plate.

See BasedBox for variant with a base.

Created with Boxes.py (https://festi.info/boxes.py)
Command line: boxes ClosedBox --FingerJoint_angle=90.0 --FingerJoint_style=rectangular --FingerJoint_surroundingspaces=2.0 --FingerJoint_bottom_lip=0.0 --FingerJoint_edge_width=1.0 --FingerJoint_extra_length=0.0 --FingerJoint_finger=2.0 --FingerJoint_play=0.0 --FingerJoint_space=2.0 --FingerJoint_width=1.0 --x=250 --y=200 --h=100 --outside=0 --thickness=5 --format=svg --tabs=0.0 --qr_code=0 --debug=0 --labels=0 --labels=1 --reference=100 --inner_corners=loop --burn=0.1
Command line short: boxes ClosedBox --x=250 --y=200 --outside=0 --thickness=5
Url: http://www.festi.info/boxes.py/ClosedBox?FingerJoint_angle=90.0&amp;FingerJoint_style=rectangular&amp;FingerJoint_surroundingspaces=2.0&amp;FingerJoint_bottom_lip=0.0&amp;FingerJoint_edge_width=1.0&amp;FingerJoint_extra_length=0.0&amp;FingerJoint_finger=2.0&amp;FingerJoint_play=0.0&amp;FingerJoint_space=2.0&amp;FingerJoint_width=1.0&amp;x=250&amp;y=200&amp;h=100&amp;outside=0&amp;thickness=5&amp;format=svg&amp;tabs=0.0&amp;qr_code=0&amp;debug=0&amp;labels=0&amp;labels=1&amp;reference=100&amp;inner_corners=loop&amp;burn=0.1&amp;language=fr&amp;render=2
Url short: http://www.festi.info/boxes.py/ClosedBox?x=250&amp;y=200&amp;outside=0&amp;thickness=5
SettingsUrl: http://www.festi.info/boxes.py/ClosedBox?FingerJoint_angle=90.0&amp;FingerJoint_style=rectangular&amp;FingerJoint_surroundingspaces=2.0&amp;FingerJoint_bottom_lip=0.0&amp;FingerJoint_edge_width=1.0&amp;FingerJoint_extra_length=0.0&amp;FingerJoint_finger=2.0&amp;FingerJoint_play=0.0&amp;FingerJoint_space=2.0&amp;FingerJoint_width=1.0&amp;x=250&amp;y=200&amp;h=100&amp;outside=0&amp;thickness=5&amp;format=svg&amp;tabs=0.0&amp;qr_code=0&amp;debug=0&amp;labels=0&amp;labels=1&amp;reference=100&amp;inner_corners=loop&amp;burn=0.1&amp;language=fr&amp;render=2
SettingsUrl short: http://www.festi.info/boxes.py/ClosedBox?x=250&amp;y=200&amp;outside=0&amp;thickness=5
</dc:description>
</cc:Work></rdf:RDF></metadata>
<g id="p-0" style="fill:none;stroke-linecap:round;stroke-linejoin:round;">
  <path d="M 18.800 458.300 H 118.800 V 448.300 H 18.800 V 458.300 Z" stroke="rgb(0,0,0)" stroke-width="0.20" />
  <text dominant-baseline="hanging" font-size="8px" style="font-family: sans-serif ; font-weight: normal; font-style: normal; fill: rgb(255,0,0)" text-anchor="middle" transform="matrix( 1.000 0.000 0.000 1.000 68.800 449.300 )">100.00mm, burn:0.10mm</text>
</g>
<g id="p-1" style="fill:none;stroke-linecap:round;stroke-linejoin:round;">
  <text dominant-baseline="hanging" font-size="4px" style="font-family: sans-serif ; font-weight: normal; font-style: normal; fill: rgb(255,0,0)" text-anchor="middle" transform="matrix( 1.000 0.000 0.000 1.000 148.800 388.600 )">Wall 1</text><path d="M 23.800 445.600 H 33.800 C 33.855 445.600 33.900 445.555 33.900 445.500 V 440.600 C 33.900 440.500 33.800 440.600 33.900 440.600 H 43.700 C 43.800 440.600 43.700 440.500 43.700 440.600 V 445.500 C 43.700 445.555 43.745 445.600 43.800 445.600 H 53.800 C 53.855 445.600 53.900 445.555 53.900 445.500 V 440.600 C 53.900 440.500 53.800 440.600 53.900 440.600 H 63.700 C 63.800 440.600 63.700 440.500 63.700 440.600 V 445.500 C 63.700 445.555 63.745 445.600 63.800 445.600 H 73.800 C 73.855 445.600 73.900 445.555 73.900 445.500 V 440.600 C 73.900 440.500 73.800 440.600 73.900 440.600 H 83.700 C 83.800 440.600 83.700 440.500 83.700 440.600 V 445.500 C 83.700 445.555 83.745 445.600 83.800 445.600 H 93.800 C 93.855 445.600 93.900 445.555 93.900 445.500 V 440.600 C 93.900 440.500 93.800 440.600 93.900 440.600 H 103.700 C 103.800 440.600 103.700 440.500 103.700 440.600 V 445.500 C 103.700 445.555 103.745 445.600 103.800 445.600 H 113.800 C 113.855 445.600 113.900 445.555 113.900 445.500 V 440.600 C 113.900 440.500 113.800 440.600 113.900 440.600 H 123.700 C 123.800 440.600 123.700 440.500 123.700 440.600 V 445.500 C 123.700 445.555 123.745 445.600 123.800 445.600 H 133.800 C 133.855 445.600 133.900 445.555 133.900 445.500 V 440.600 C 133.900 440.500 133.800 440.600 133.900 440.600 H 143.700 C 143.800 440.600 143.700 440.500 143.700 440.600 V 445.500 C 143.700 445.555 143.745 445.600 143.800 445.600 H 153.800 C 153.855 445.600 153.900 445.555 153.900 445.500 V 440.600 C 153.900 440.500 153.800 440.600 153.900 440.600 H 163.700 C 163.800 440.600 163.700 440.500 163.700 440.600 V 445.500 C 163.700 445.555 163.745 445.600 163.800 445.600 H 173.800 C 173.855 445.600 173.900 445.555 173.900 445.500 V 440.600 C 173.900 440.500 173.800 440.600 173.900 440.600 H 183.700 C 183.800 440.600 183.700 440.500 183.700 440.600 V 445.500 C 183.700 445.555 183.745 445.600 183.800 445.600 H 193.800 C 193.855 445.600 193.900 445.555 193.900 445.500 V 440.600 C 193.900 440.500 193.800 440.600 193.900 440.600 H 203.700 C 203.800 440.600 203.700 440.500 203.700 440.600 V 445.500 C 203.700 445.555 203.745 445.600 203.800 445.600 H 213.800 C 213.855 445.600 213.900 445.555 213.900 445.500 V 440.600 C 213.900 440.500 213.800 440.600 213.900 440.600 H 223.700 C 223.800 440.600 223.700 440.500 223.700 440.600 V 445.500 C 223.700 445.555 223.745 445.600 223.800 445.600 H 233.800 C 233.855 445.600 233.900 445.555 233.900 445.500 V 440.600 C 233.900 440.500 233.800 440.600 233.900 440.600 H 243.700 C 243.800 440.600 243.700 440.500 243.700 440.600 V 445.500 C 243.700 445.555 243.745 445.600 243.800 445.600 H 253.800 C 253.855 445.600 253.900 445.555 253.900 445.500 V 440.600 C 253.900 440.500 253.800 440.600 253.900 440.600 H 263.700 C 263.800 440.600 263.700 440.500 263.700 440.600 V 445.500 C 263.700 445.555 263.745 445.600 263.800 445.600 H 273.800 H 278.800 C 278.855 445.600 278.900 445.555 278.900 445.500 V 440.500 V 425.500 C 278.900 425.445 278.855 425.400 278.800 425.400 H 273.900 C 273.800 425.400 273.900 425.500 273.900 425.400 V 415.600 C 273.900 415.500 273.800 415.600 273.900 415.600 H 278.800 C 278.855 415.600 278.900 415.555 278.900 415.500 V 405.500 C 278.900 405.445 278.855 405.400 278.800 405.400 H 273.900 C 273.800 405.400 273.900 405.500 273.900 405.400 V 395.600 C 273.900 395.500 273.800 395.600 273.900 395.600 H 278.800 C 278.855 395.600 278.900 395.555 278.900 395.500 V 385.500 C 278.900 385.445 278.855 385.400 278.800 385.400 H 273.900 C 273.800 385.400 273.900 385.500 273.900 385.400 V 375.600 C 273.900 375.500 273.800 375.600 273.900 375.600 H 278.800 C 278.855 375.600 278.900 375.555 278.900 375.500 V 365.500 C 278.900 365.445 278.855 365.400 278.800 365.400 H 273.900 C 273.800 365.400 273.900 365.500 273.900 365.400 V 355.600 C 273.900 355.500 273.800 355.600 273.900 355.600 H 278.800 C 278.855 355.600 278.900 355.555 278.900 355.500 V 340.500 V 335.500 C 278.900 335.445 278.855 335.400 278.800 335.400 H 273.800 H 263.800 C 263.745 335.400 263.700 335.445 263.700 335.500 V 340.400 C 263.700 340.500 263.800 340.400 263.700 340.400 H 253.900 C 253.800 340.400 253.900 340.500 253.900 340.400 V 335.500 C 253.900 335.445 253.855 335.400 253.800 335.400 H 243.800 C 243.745 335.400 243.700 335.445 243.700 335.500 V 340.400 C 243.700 340.500 243.800 340.400 243.700 340.400 H 233.900 C 233.800 340.400 233.900 340.500 233.900 340.400 V 335.500 C 233.900 335.445 233.855 335.400 233.800 335.400 H 223.800 C 223.745 335.400 223.700 335.445 223.700 335.500 V 340.400 C 223.700 340.500 223.800 340.400 223.700 340.400 H 213.900 C 213.800 340.400 213.900 340.500 213.900 340.400 V 335.500 C 213.900 335.445 213.855 335.400 213.800 335.400 H 203.800 C 203.745 335.400 203.700 335.445 203.700 335.500 V 340.400 C 203.700 340.500 203.800 340.400 203.700 340.400 H 193.900 C 193.800 340.400 193.900 340.500 193.900 340.400 V 335.500 C 193.900 335.445 193.855 335.400 193.800 335.400 H 183.800 C 183.745 335.400 183.700 335.445 183.700 335.500 V 340.400 C 183.700 340.500 183.800 340.400 183.700 340.400 H 173.900 C 173.800 340.400 173.900 340.500 173.900 340.400 V 335.500 C 173.900 335.445 173.855 335.400 173.800 335.400 H 163.800 C 163.745 335.400 163.700 335.445 163.700 335.500 V 340.400 C 163.700 340.500 163.800 340.400 163.700 340.400 H 153.900 C 153.800 340.400 153.900 340.500 153.900 340.400 V 335.500 C 153.900 335.445 153.855 335.400 153.800 335.400 H 143.800 C 143.745 335.400 143.700 335.445 143.700 335.500 V 340.400 C 143.700 340.500 143.800 340.400 143.700 340.400 H 133.900 C 133.800 340.400 133.900 340.500 133.900 340.400 V 335.500 C 133.900 335.445 133.855 335.400 133.800 335.400 H 123.800 C 123.745 335.400 123.700 335.445 123.700 335.500 V 340.400 C 123.700 340.500 123.800 340.400 123.700 340.400 H 113.900 C 113.800 340.400 113.900 340.500 113.900 340.400 V 335.500 C 113.900 335.445 113.855 335.400 113.800 335.400 H 103.800 C 103.745 335.400 103.700 335.445 103.700 335.500 V 340.400 C 103.700 340.500 103.800 340.400 103.700 340.400 H 93.900 C 93.800 340.400 93.900 340.500 93.900 340.400 V 335.500 C 93.900 335.445 93.855 335.400 93.800 335.400 H 83.800 C 83.745 335.400 83.700 335.445 83.700 335.500 V 340.400 C 83.700 340.500 83.800 340.400 83.700 340.400 H 73.900 C 73.800 340.400 73.900 340.500 73.900 340.400 V 335.500 C 73.900 335.445 73.855 335.400 73.800 335.400 H 63.800 C 63.745 335.400 63.700 335.445 63.700 335.500 V 340.400 C 63.700 340.500 63.800 340.400 63.700 340.400 H 53.900 C 53.800 340.400 53.900 340.500 53.900 340.400 V 335.500 C 53.900 335.445 53.855 335.400 53.800 335.400 H 43.800 C 43.745 335.400 43.700 335.445 43.700 335.500 V 340.400 C 43.700 340.500 43.800 340.400 43.700 340.400 H 33.900 C 33.800 340.400 33.900 340.500 33.900 340.400 V 335.500 C 33.900 335.445 33.855 335.400 33.800 335.400 H 23.800 H 18.800 C 18.745 335.400 18.700 335.445 18.700 335.500 V 340.500 V 355.500 C 18.700 355.555 18.745 355.600 18.800 355.600 H 23.700 C 23.800 355.600 23.700 355.500 23.700 355.600 V 365.400 C 23.700 365.500 23.800 365.400 23.700 365.400 H 18.800 C 18.745 365.400 18.700 365.445 18.700 365.500 V 375.500 C 18.700 375.555 18.745 375.600 18.800 375.600 H 23.700 C 23.800 375.600 23.700 375.500 23.700 375.600 V 385.400 C 23.700 385.500 23.800 385.400 23.700 385.400 H 18.800 C 18.745 385.400 18.700 385.445 18.700 385.500 V 395.500 C 18.700 395.555 18.745 395.600 18.800 395.600 H 23.700 C 23.800 395.600 23.700 395.500 23.700 395.600 V 405.400 C 23.700 405.500 23.800 405.400 23.700 405.400 H 18.800 C 18.745 405.400 18.700 405.445 18.700 405.500 V 415.500 C 18.700 415.555 18.745 415.600 18.800 415.600 H 23.700 C 23.800 415.600 23.700 415.500 23.700 415.600 V 425.400 C 23.700 425.500 23.800 425.400 23.700 425.400 H 18.800 C 18.745 425.400 18.700 425.445 18.700 425.500 V 440.500 V 445.500 C 18.700 445.555 18.745 445.600 18.800 445.600 H 23.800" stroke="rgb(0,0,0)" stroke-width="0.20" />
</g>
<g id="p-2" style="fill:none;stroke-linecap:round;stroke-linejoin:round;">
  <text dominant-baseline="hanging" font-size="4px" style="font-family: sans-serif ; font-weight: normal; font-style: normal; fill: rgb(255,0,0)" text-anchor="middle" transform="matrix( 1.000 0.000 0.000 1.000 386.500 388.600 )">Wall 2</text><path d="M 286.500 445.600 H 301.500 C 301.555 445.600 301.600 445.555 301.600 445.500 V 440.600 C 301.600 440.500 301.500 440.600 301.600 440.600 H 311.400 C 311.500 440.600 311.400 440.500 311.400 440.600 V 445.500 C 311.400 445.555 311.445 445.600 311.500 445.600 H 321.500 C 321.555 445.600 321.600 445.555 321.600 445.500 V 440.600 C 321.600 440.500 321.500 440.600 321.600 440.600 H 331.400 C 331.500 440.600 331.400 440.500 331.400 440.600 V 445.500 C 331.400 445.555 331.445 445.600 331.500 445.600 H 341.500 C 341.555 445.600 341.600 445.555 341.600 445.500 V 440.600 C 341.600 440.500 341.500 440.600 341.600 440.600 H 351.400 C 351.500 440.600 351.400 440.500 351.400 440.600 V 445.500 C 351.400 445.555 351.445 445.600 351.500 445.600 H 361.500 C 361.555 445.600 361.600 445.555 361.600 445.500 V 440.600 C 361.600 440.500 361.500 440.600 361.600 440.600 H 371.400 C 371.500 440.600 371.400 440.500 371.400 440.600 V 445.500 C 371.400 445.555 371.445 445.600 371.500 445.600 H 381.500 C 381.555 445.600 381.600 445.555 381.600 445.500 V 440.600 C 381.600 440.500 381.500 440.600 381.600 440.600 H 391.400 C 391.500 440.600 391.400 440.500 391.400 440.600 V 445.500 C 391.400 445.555 391.445 445.600 391.500 445.600 H 401.500 C 401.555 445.600 401.600 445.555 401.600 445.500 V 440.600 C 401.600 440.500 401.500 440.600 401.600 440.600 H 411.400 C 411.500 440.600 411.400 440.500 411.400 440.600 V 445.500 C 411.400 445.555 411.445 445.600 411.500 445.600 H 421.500 C 421.555 445.600 421.600 445.555 421.600 445.500 V 440.600 C 421.600 440.500 421.500 440.600 421.600 440.600 H 431.400 C 431.500 440.600 431.400 440.500 431.400 440.600 V 445.500 C 431.400 445.555 431.445 445.600 431.500 445.600 H 441.500 C 441.555 445.600 441.600 445.555 441.600 445.500 V 440.600 C 441.600 440.500 441.500 440.600 441.600 440.600 H 451.400 C 451.500 440.600 451.400 440.500 451.400 440.600 V 445.500 C 451.400 445.555 451.445 445.600 451.500 445.600 H 461.500 C 461.555 445.600 461.600 445.555 461.600 445.500 V 440.600 C 461.600 440.500 461.500 440.600 461.600 440.600 H 471.400 C 471.500 440.600 471.400 440.500 471.400 440.600 V 445.500 C 471.400 445.555 471.445 445.600 471.500 445.600 H 486.500 C 486.555 445.600 486.600 445.555 486.600 445.500 V 440.500 V 425.600 C 486.600 425.500 486.500 425.600 486.600 425.600 H 491.500 C 491.555 425.600 491.600 425.555 491.600 425.500 V 415.500 C 491.600 415.445 491.555 415.400 491.500 415.400 H 486.600 C 486.500 415.400 486.600 415.500 486.600 415.400 V 405.600 C 486.600 405.500 486.500 405.600 486.600 405.600 H 491.500 C 491.555 405.600 491.600 405.555 491.600 405.500 V 395.500 C 491.600 395.445 491.555 395.400 491.500 395.400 H 486.600 C 486.500 395.400 486.600 395.500 486.600 395.400 V 385.600 C 486.600 385.500 486.500 385.600 486.600 385.600 H 491.500 C 491.555 385.600 491.600 385.555 491.600 385.500 V 375.500 C 491.600 375.445 491.555 375.400 491.500 375.400 H 486.600 C 486.500 375.400 486.600 375.500 486.600 375.400 V 365.600 C 486.600 365.500 486.500 365.600 486.600 365.600 H 491.500 C 491.555 365.600 491.600 365.555 491.600 365.500 V 355.500 C 491.600 355.445 491.555 355.400 491.500 355.400 H 486.600 C 486.500 355.400 486.600 355.500 486.600 355.400 V 340.500 V 335.500 C 486.600 335.445 486.555 335.400 486.500 335.400 H 471.500 C 471.445 335.400 471.400 335.445 471.400 335.500 V 340.400 C 471.400 340.500 471.500 340.400 471.400 340.400 H 461.600 C 461.500 340.400 461.600 340.500 461.600 340.400 V 335.500 C 461.600 335.445 461.555 335.400 461.500 335.400 H 451.500 C 451.445 335.400 451.400 335.445 451.400 335.500 V 340.400 C 451.400 340.500 451.500 340.400 451.400 340.400 H 441.600 C 441.500 340.400 441.600 340.500 441.600 340.400 V 335.500 C 441.600 335.445 441.555 335.400 441.500 335.400 H 431.500 C 431.445 335.400 431.400 335.445 431.400 335.500 V 340.400 C 431.400 340.500 431.500 340.400 431.400 340.400 H 421.600 C 421.500 340.400 421.600 340.500 421.600 340.400 V 335.500 C 421.600 335.445 421.555 335.400 421.500 335.400 H 411.500 C 411.445 335.400 411.400 335.445 411.400 335.500 V 340.400 C 411.400 340.500 411.500 340.400 411.400 340.400 H 401.600 C 401.500 340.400 401.600 340.500 401.600 340.400 V 335.500 C 401.600 335.445 401.555 335.400 401.500 335.400 H 391.500 C 391.445 335.400 391.400 335.445 391.400 335.500 V 340.400 C 391.400 340.500 391.500 340.400 391.400 340.400 H 381.600 C 381.500 340.400 381.600 340.500 381.600 340.400 V 335.500 C 381.600 335.445 381.555 335.400 381.500 335.400 H 371.500 C 371.445 335.400 371.400 335.445 371.400 335.500 V 340.400 C 371.400 340.500 371.500 340.400 371.400 340.400 H 361.600 C 361.500 340.400 361.600 340.500 361.600 340.400 V 335.500 C 361.600 335.445 361.555 335.400 361.500 335.400 H 351.500 C 351.445 335.400 351.400 335.445 351.400 335.500 V 340.400 C 351.400 340.500 351.500 340.400 351.400 340.400 H 341.600 C 341.500 340.400 341.600 340.500 341.600 340.400 V 335.500 C 341.600 335.445 341.555 335.400 341.500 335.400 H 331.500 C 331.445 335.400 331.400 335.445 331.400 335.500 V 340.400 C 331.400 340.500 331.500 340.400 331.400 340.400 H 321.600 C 321.500 340.400 321.600 340.500 321.600 340.400 V 335.500 C 321.600 335.445 321.555 335.400 321.500 335.400 H 311.500 C 311.445 335.400 311.400 335.445 311.400 335.500 V 340.400 C 311.400 340.500 311.500 340.400 311.400 340.400 H 301.600 C 301.500 340.400 301.600 340.500 301.600 340.400 V 335.500 C 301.600 335.445 301.555 335.400 301.500 335.400 H 286.500 C 286.445 335.400 286.400 335.445 286.400 335.500 V 340.500 V 355.400 C 286.400 355.500 286.500 355.400 286.400 355.400 H 281.500 C 281.445 355.400 281.400 355.445 281.400 355.500 V 365.500 C 281.400 365.555 281.445 365.600 281.500 365.600 H 286.400 C 286.500 365.600 286.400 365.500 286.400 365.600 V 375.400 C 286.400 375.500 286.500 375.400 286.400 375.400 H 281.500 C 281.445 375.400 281.400 375.445 281.400 375.500 V 385.500 C 281.400 385.555 281.445 385.600 281.500 385.600 H 286.400 C 286.500 385.600 286.400 385.500 286.400 385.600 V 395.400 C 286.400 395.500 286.500 395.400 286.400 395.400 H 281.500 C 281.445 395.400 281.400 395.445 281.400 395.500 V 405.500 C 281.400 405.555 281.445 405.600 281.500 405.600 H 286.400 C 286.500 405.600 286.400 405.500 286.400 405.600 V 415.400 C 286.400 415.500 286.500 415.400 286.400 415.400 H 281.500 C 281.445 415.400 281.400 415.445 281.400 415.500 V 425.500 C 281.400 425.555 281.445 425.600 281.500 425.600 H 286.400 C 286.500 425.600 286.400 425.500 286.400 425.600 V 440.500 V 445.500 C 286.400 445.555 286.445 445.600 286.500 445.600" stroke="rgb(0,0,0)" stroke-width="0.20" />
</g>
<g id="p-3" style="fill:none;stroke-linecap:round;stroke-linejoin:round;">
  <text dominant-baseline="hanging" font-size="4px" style="font-family: sans-serif ; font-weight: normal; font-style: normal; fill: rgb(255,0,0)" text-anchor="middle" transform="matrix( 1.000 0.000 0.000 1.000 386.500 275.900 )">Wall 4</text><path d="M 286.500 332.900 H 301.500 C 301.555 332.900 301.600 332.855 301.600 332.800 V 327.900 C 301.600 327.800 301.500 327.900 301.600 327.900 H 311.400 C 311.500 327.900 311.400 327.800 311.400 327.900 V 332.800 C 311.400 332.855 311.445 332.900 311.500 332.900 H 321.500 C 321.555 332.900 321.600 332.855 321.600 332.800 V 327.900 C 321.600 327.800 321.500 327.900 321.600 327.900 H 331.400 C 331.500 327.900 331.400 327.800 331.400 327.900 V 332.800 C 331.400 332.855 331.445 332.900 331.500 332.900 H 341.500 C 341.555 332.900 341.600 332.855 341.600 332.800 V 327.900 C 341.600 327.800 341.500 327.900 341.600 327.900 H 351.400 C 351.500 327.900 351.400 327.800 351.400 327.900 V 332.800 C 351.400 332.855 351.445 332.900 351.500 332.900 H 361.500 C 361.555 332.900 361.600 332.855 361.600 332.800 V 327.900 C 361.600 327.800 361.500 327.900 361.600 327.900 H 371.400 C 371.500 327.900 371.400 327.800 371.400 327.900 V 332.800 C 371.400 332.855 371.445 332.900 371.500 332.900 H 381.500 C 381.555 332.900 381.600 332.855 381.600 332.800 V 327.900 C 381.600 327.800 381.500 327.900 381.600 327.900 H 391.400 C 391.500 327.900 391.400 327.800 391.400 327.900 V 332.800 C 391.400 332.855 391.445 332.900 391.500 332.900 H 401.500 C 401.555 332.900 401.600 332.855 401.600 332.800 V 327.900 C 401.600 327.800 401.500 327.900 401.600 327.900 H 411.400 C 411.500 327.900 411.400 327.800 411.400 327.900 V 332.800 C 411.400 332.855 411.445 332.900 411.500 332.900 H 421.500 C 421.555 332.900 421.600 332.855 421.600 332.800 V 327.900 C 421.600 327.800 421.500 327.900 421.600 327.900 H 431.400 C 431.500 327.900 431.400 327.800 431.400 327.900 V 332.800 C 431.400 332.855 431.445 332.900 431.500 332.900 H 441.500 C 441.555 332.900 441.600 332.855 441.600 332.800 V 327.900 C 441.600 327.800 441.500 327.900 441.600 327.900 H 451.400 C 451.500 327.900 451.400 327.800 451.400 327.900 V 332.800 C 451.400 332.855 451.445 332.900 451.500 332.900 H 461.500 C 461.555 332.900 461.600 332.855 461.600 332.800 V 327.900 C 461.600 327.800 461.500 327.900 461.600 327.900 H 471.400 C 471.500 327.900 471.400 327.800 471.400 327.900 V 332.800 C 471.400 332.855 471.445 332.900 471.500 332.900 H 486.500 C 486.555 332.900 486.600 332.855 486.600 332.800 V 327.800 V 312.900 C 486.600 312.800 486.500 312.900 486.600 312.900 H 491.500 C 491.555 312.900 491.600 312.855 491.600 312.800 V 302.800 C 491.600 302.745 491.555 302.700 491.500 302.700 H 486.600 C 486.500 302.700 486.600 302.800 486.600 302.700 V 292.900 C 486.600 292.800 486.500 292.900 486.600 292.900 H 491.500 C 491.555 292.900 491.600 292.855 491.600 292.800 V 282.800 C 491.600 282.745 491.555 282.700 491.500 282.700 H 486.600 C 486.500 282.700 486.600 282.800 486.600 282.700 V 272.900 C 486.600 272.800 486.500 272.900 486.600 272.900 H 491.500 C 491.555 272.900 491.600 272.855 491.600 272.800 V 262.800 C 491.600 262.745 491.555 262.700 491.500 262.700 H 486.600 C 486.500 262.700 486.600 262.800 486.600 262.700 V 252.900 C 486.600 252.800 486.500 252.900 486.600 252.900 H 491.500 C 491.555 252.900 491.600 252.855 491.600 252.800 V 242.800 C 491.600 242.745 491.555 242.700 491.500 242.700 H 486.600 C 486.500 242.700 486.600 242.800 486.600 242.700 V 227.800 V 222.800 C 486.600 222.745 486.555 222.700 486.500 222.700 H 471.500 C 471.445 222.700 471.400 222.745 471.400 222.800 V 227.700 C 471.400 227.800 471.500 227.700 471.400 227.700 H 461.600 C 461.500 227.700 461.600 227.800 461.600 227.700 V 222.800 C 461.600 222.745 461.555 222.700 461.500 222.700 H 451.500 C 451.445 222.700 451.400 222.745 451.400 222.800 V 227.700 C 451.400 227.800 451.500 227.700 451.400 227.700 H 441.600 C 441.500 227.700 441.600 227.800 441.600 227.700 V 222.800 C 441.600 222.745 441.555 222.700 441.500 222.700 H 431.500 C 431.445 222.700 431.400 222.745 431.400 222.800 V 227.700 C 431.400 227.800 431.500 227.700 431.400 227.700 H 421.600 C 421.500 227.700 421.600 227.800 421.600 227.700 V 222.800 C 421.600 222.745 421.555 222.700 421.500 222.700 H 411.500 C 411.445 222.700 411.400 222.745 411.400 222.800 V 227.700 C 411.400 227.800 411.500 227.700 411.400 227.700 H 401.600 C 401.500 227.700 401.600 227.800 401.600 227.700 V 222.800 C 401.600 222.745 401.555 222.700 401.500 222.700 H 391.500 C 391.445 222.700 391.400 222.745 391.400 222.800 V 227.700 C 391.400 227.800 391.500 227.700 391.400 227.700 H 381.600 C 381.500 227.700 381.600 227.800 381.600 227.700 V 222.800 C 381.600 222.745 381.555 222.700 381.500 222.700 H 371.500 C 371.445 222.700 371.400 222.745 371.400 222.800 V 227.700 C 371.400 227.800 371.500 227.700 371.400 227.700 H 361.600 C 361.500 227.700 361.600 227.800 361.600 227.700 V 222.800 C 361.600 222.745 361.555 222.700 361.500 222.700 H 351.500 C 351.445 222.700 351.400 222.745 351.400 222.800 V 227.700 C 351.400 227.800 351.500 227.700 351.400 227.700 H 341.600 C 341.500 227.700 341.600 227.800 341.600 227.700 V 222.800 C 341.600 222.745 341.555 222.700 341.500 222.700 H 331.500 C 331.445 222.700 331.400 222.745 331.400 222.800 V 227.700 C 331.400 227.800 331.500 227.700 331.400 227.700 H 321.600 C 321.500 227.700 321.600 227.800 321.600 227.700 V 222.800 C 321.600 222.745 321.555 222.700 321.500 222.700 H 311.500 C 311.445 222.700 311.400 222.745 311.400 222.800 V 227.700 C 311.400 227.800 311.500 227.700 311.400 227.700 H 301.600 C 301.500 227.700 301.600 227.800 301.600 227.700 V 222.800 C 301.600 222.745 301.555 222.700 301.500 222.700 H 286.500 C 286.445 222.700 286.400 222.745 286.400 222.800 V 227.800 V 242.700 C 286.400 242.800 286.500 242.700 286.400 242.700 H 281.500 C 281.445 242.700 281.400 242.745 281.400 242.800 V 252.800 C 281.400 252.855 281.445 252.900 281.500 252.900 H 286.400 C 286.500 252.900 286.400 252.800 286.400 252.900 V 262.700 C 286.400 262.800 286.500 262.700 286.400 262.700 H 281.500 C 281.445 262.700 281.400 262.745 281.400 262.800 V 272.800 C 281.400 272.855 281.445 272.900 281.500 272.900 H 286.400 C 286.500 272.900 286.400 272.800 286.400 272.900 V 282.700 C 286.400 282.800 286.500 282.700 286.400 282.700 H 281.500 C 281.445 282.700 281.400 282.745 281.400 282.800 V 292.800 C 281.400 292.855 281.445 292.900 281.500 292.900 H 286.400 C 286.500 292.900 286.400 292.800 286.400 292.900 V 302.700 C 286.400 302.800 286.500 302.700 286.400 302.700 H 281.500 C 281.445 302.700 281.400 302.745 281.400 302.800 V 312.800 C 281.400 312.855 281.445 312.900 281.500 312.900 H 286.400 C 286.500 312.900 286.400 312.800 286.400 312.900 V 327.800 V 332.800 C 286.400 332.855 286.445 332.900 286.500 332.900" stroke="rgb(0,0,0)" stroke-width="0.20" />
</g>
<g id="p-4" style="fill:none;stroke-linecap:round;stroke-linejoin:round;">
  <text dominant-baseline="hanging" font-size="4px" style="font-family: sans-serif ; font-weight: normal; font-style: normal; fill: rgb(255,0,0)" text-anchor="middle" transform="matrix( 1.000 0.000 0.000 1.000 148.800 275.900 )">Wall 3</text><path d="M 23.800 332.900 H 33.800 C 33.855 332.900 33.900 332.855 33.900 332.800 V 327.900 C 33.900 327.800 33.800 327.900 33.900 327.900 H 43.700 C 43.800 327.900 43.700 327.800 43.700 327.900 V 332.800 C 43.700 332.855 43.745 332.900 43.800 332.900 H 53.800 C 53.855 332.900 53.900 332.855 53.900 332.800 V 327.900 C 53.900 327.800 53.800 327.900 53.900 327.900 H 63.700 C 63.800 327.900 63.700 327.800 63.700 327.900 V 332.800 C 63.700 332.855 63.745 332.900 63.800 332.900 H 73.800 C 73.855 332.900 73.900 332.855 73.900 332.800 V 327.900 C 73.900 327.800 73.800 327.900 73.900 327.900 H 83.700 C 83.800 327.900 83.700 327.800 83.700 327.900 V 332.800 C 83.700 332.855 83.745 332.900 83.800 332.900 H 93.800 C 93.855 332.900 93.900 332.855 93.900 332.800 V 327.900 C 93.900 327.800 93.800 327.900 93.900 327.900 H 103.700 C 103.800 327.900 103.700 327.800 103.700 327.900 V 332.800 C 103.700 332.855 103.745 332.900 103.800 332.900 H 113.800 C 113.855 332.900 113.900 332.855 113.900 332.800 V 327.900 C 113.900 327.800 113.800 327.900 113.900 327.900 H 123.700 C 123.800 327.900 123.700 327.800 123.700 327.900 V 332.800 C 123.700 332.855 123.745 332.900 123.800 332.900 H 133.800 C 133.855 332.900 133.900 332.855 133.900 332.800 V 327.900 C 133.900 327.800 133.800 327.900 133.900 327.900 H 143.700 C 143.800 327.900 143.700 327.800 143.700 327.900 V 332.800 C 143.700 332.855 143.745 332.900 143.800 332.900 H 153.800 C 153.855 332.900 153.900 332.855 153.900 332.800 V 327.900 C 153.900 327.800 153.800 327.900 153.900 327.900 H 163.700 C 163.800 327.900 163.700 327.800 163.700 327.900 V 332.800 C 163.700 332.855 163.745 332.900 163.800 332.900 H 173.800 C 173.855 332.900 173.900 332.855 173.900 332.800 V 327.900 C 173.900 327.800 173.800 327.900 173.900 327.900 H 183.700 C 183.800 327.900 183.700 327.800 183.700 327.900 V 332.800 C 183.700 332.855 183.745 332.900 183.800 332.900 H 193.800 C 193.855 332.900 193.900 332.855 193.900 332.800 V 327.900 C 193.900 327.800 193.800 327.900 193.900 327.900 H 203.700 C 203.800 327.900 203.700 327.800 203.700 327.900 V 332.800 C 203.700 332.855 203.745 332.900 203.800 332.900 H 213.800 C 213.855 332.900 213.900 332.855 213.900 332.800 V 327.900 C 213.900 327.800 213.800 327.900 213.900 327.900 H 223.700 C 223.800 327.900 223.700 327.800 223.700 327.900 V 332.800 C 223.700 332.855 223.745 332.900 223.800 332.900 H 233.800 C 233.855 332.900 233.900 332.855 233.900 332.800 V 327.900 C 233.900 327.800 233.800 327.900 233.900 327.900 H 243.700 C 243.800 327.900 243.700 327.800 243.700 327.900 V 332.800 C 243.700 332.855 243.745 332.900 243.800 332.900 H 253.800 C 253.855 332.900 253.900 332.855 253.900 332.800 V 327.900 C 253.900 327.800 253.800 327.900 253.900 327.900 H 263.700 C 263.800 327.900 263.700 327.800 263.700 327.900 V 332.800 C 263.700 332.855 263.745 332.900 263.800 332.900 H 273.800 H 278.800 C 278.855 332.900 278.900 332.855 278.900 332.800 V 327.800 V 312.800 C 278.900 312.745 278.855 312.700 278.800 312.700 H 273.900 C 273.800 312.700 273.900 312.800 273.900 312.700 V 302.900 C 273.900 302.800 273.800 302.900 273.900 302.900 H 278.800 C 278.855 302.900 278.900 302.855 278.900 302.800 V 292.800 C 278.900 292.745 278.855 292.700 278.800 292.700 H 273.900 C 273.800 292.700 273.900 292.800 273.900 292.700 V 282.900 C 273.900 282.800 273.800 282.900 273.900 282.900 H 278.800 C 278.855 282.900 278.900 282.855 278.900 282.800 V 272.800 C 278.900 272.745 278.855 272.700 278.800 272.700 H 273.900 C 273.800 272.700 273.900 272.800 273.900 272.700 V 262.900 C 273.900 262.800 273.800 262.900 273.900 262.900 H 278.800 C 278.855 262.900 278.900 262.855 278.900 262.800 V 252.800 C 278.900 252.745 278.855 252.700 278.800 252.700 H 273.900 C 273.800 252.700 273.900 252.800 273.900 252.700 V 242.900 C 273.900 242.800 273.800 242.900 273.900 242.900 H 278.800 C 278.855 242.900 278.900 242.855 278.900 242.800 V 227.800 V 222.800 C 278.900 222.745 278.855 222.700 278.800 222.700 H 273.800 H 263.800 C 263.745 222.700 263.700 222.745 263.700 222.800 V 227.700 C 263.700 227.800 263.800 227.700 263.700 227.700 H 253.900 C 253.800 227.700 253.900 227.800 253.900 227.700 V 222.800 C 253.900 222.745 253.855 222.700 253.800 222.700 H 243.800 C 243.745 222.700 243.700 222.745 243.700 222.800 V 227.700 C 243.700 227.800 243.800 227.700 243.700 227.700 H 233.900 C 233.800 227.700 233.900 227.800 233.900 227.700 V 222.800 C 233.900 222.745 233.855 222.700 233.800 222.700 H 223.800 C 223.745 222.700 223.700 222.745 223.700 222.800 V 227.700 C 223.700 227.800 223.800 227.700 223.700 227.700 H 213.900 C 213.800 227.700 213.900 227.800 213.900 227.700 V 222.800 C 213.900 222.745 213.855 222.700 213.800 222.700 H 203.800 C 203.745 222.700 203.700 222.745 203.700 222.800 V 227.700 C 203.700 227.800 203.800 227.700 203.700 227.700 H 193.900 C 193.800 227.700 193.900 227.800 193.900 227.700 V 222.800 C 193.900 222.745 193.855 222.700 193.800 222.700 H 183.800 C 183.745 222.700 183.700 222.745 183.700 222.800 V 227.700 C 183.700 227.800 183.800 227.700 183.700 227.700 H 173.900 C 173.800 227.700 173.900 227.800 173.900 227.700 V 222.800 C 173.900 222.745 173.855 222.700 173.800 222.700 H 163.800 C 163.745 222.700 163.700 222.745 163.700 222.800 V 227.700 C 163.700 227.800 163.800 227.700 163.700 227.700 H 153.900 C 153.800 227.700 153.900 227.800 153.900 227.700 V 222.800 C 153.900 222.745 153.855 222.700 153.800 222.700 H 143.800 C 143.745 222.700 143.700 222.745 143.700 222.800 V 227.700 C 143.700 227.800 143.800 227.700 143.700 227.700 H 133.900 C 133.800 227.700 133.900 227.800 133.900 227.700 V 222.800 C 133.900 222.745 133.855 222.700 133.800 222.700 H 123.800 C 123.745 222.700 123.700 222.745 123.700 222.800 V 227.700 C 123.700 227.800 123.800 227.700 123.700 227.700 H 113.900 C 113.800 227.700 113.900 227.800 113.900 227.700 V 222.800 C 113.900 222.745 113.855 222.700 113.800 222.700 H 103.800 C 103.745 222.700 103.700 222.745 103.700 222.800 V 227.700 C 103.700 227.800 103.800 227.700 103.700 227.700 H 93.900 C 93.800 227.700 93.900 227.800 93.900 227.700 V 222.800 C 93.900 222.745 93.855 222.700 93.800 222.700 H 83.800 C 83.745 222.700 83.700 222.745 83.700 222.800 V 227.700 C 83.700 227.800 83.800 227.700 83.700 227.700 H 73.900 C 73.800 227.700 73.900 227.800 73.900 227.700 V 222.800 C 73.900 222.745 73.855 222.700 73.800 222.700 H 63.800 C 63.745 222.700 63.700 222.745 63.700 222.800 V 227.700 C 63.700 227.800 63.800 227.700 63.700 227.700 H 53.900 C 53.800 227.700 53.900 227.800 53.900 227.700 V 222.800 C 53.900 222.745 53.855 222.700 53.800 222.700 H 43.800 C 43.745 222.700 43.700 222.745 43.700 222.800 V 227.700 C 43.700 227.800 43.800 227.700 43.700 227.700 H 33.900 C 33.800 227.700 33.900 227.800 33.900 227.700 V 222.800 C 33.900 222.745 33.855 222.700 33.800 222.700 H 23.800 H 18.800 C 18.745 222.700 18.700 222.745 18.700 222.800 V 227.800 V 242.800 C 18.700 242.855 18.745 242.900 18.800 242.900 H 23.700 C 23.800 242.900 23.700 242.800 23.700 242.900 V 252.700 C 23.700 252.800 23.800 252.700 23.700 252.700 H 18.800 C 18.745 252.700 18.700 252.745 18.700 252.800 V 262.800 C 18.700 262.855 18.745 262.900 18.800 262.900 H 23.700 C 23.800 262.900 23.700 262.800 23.700 262.900 V 272.700 C 23.700 272.800 23.800 272.700 23.700 272.700 H 18.800 C 18.745 272.700 18.700 272.745 18.700 272.800 V 282.800 C 18.700 282.855 18.745 282.900 18.800 282.900 H 23.700 C 23.800 282.900 23.700 282.800 23.700 282.900 V 292.700 C 23.700 292.800 23.800 292.700 23.700 292.700 H 18.800 C 18.745 292.700 18.700 292.745 18.700 292.800 V 302.800 C 18.700 302.855 18.745 302.900 18.800 302.900 H 23.700 C 23.800 302.900 23.700 302.800 23.700 302.900 V 312.700 C 23.700 312.800 23.800 312.700 23.700 312.700 H 18.800 C 18.745 312.700 18.700 312.745 18.700 312.800 V 327.800 V 332.800 C 18.700 332.855 18.745 332.900 18.800 332.900 H 23.800" stroke="rgb(0,0,0)" stroke-width="0.20" />
</g>
<g id="p-5" style="fill:none;stroke-linecap:round;stroke-linejoin:round;">
  <text dominant-baseline="hanging" font-size="4px" style="font-family: sans-serif ; font-weight: normal; font-style: normal; fill: rgb(255,0,0)" text-anchor="middle" transform="matrix( 1.000 0.000 0.000 1.000 148.800 113.200 )">Top</text><path d="M 23.800 215.200 H 33.700 C 33.800 215.200 33.700 215.100 33.700 215.200 V 220.100 C 33.700 220.155 33.745 220.200 33.800 220.200 H 43.800 C 43.855 220.200 43.900 220.155 43.900 220.100 V 215.200 C 43.900 215.100 43.800 215.200 43.900 215.200 H 53.700 C 53.800 215.200 53.700 215.100 53.700 215.200 V 220.100 C 53.700 220.155 53.745 220.200 53.800 220.200 H 63.800 C 63.855 220.200 63.900 220.155 63.900 220.100 V 215.200 C 63.900 215.100 63.800 215.200 63.900 215.200 H 73.700 C 73.800 215.200 73.700 215.100 73.700 215.200 V 220.100 C 73.700 220.155 73.745 220.200 73.800 220.200 H 83.800 C 83.855 220.200 83.900 220.155 83.900 220.100 V 215.200 C 83.900 215.100 83.800 215.200 83.900 215.200 H 93.700 C 93.800 215.200 93.700 215.100 93.700 215.200 V 220.100 C 93.700 220.155 93.745 220.200 93.800 220.200 H 103.800 C 103.855 220.200 103.900 220.155 103.900 220.100 V 215.200 C 103.900 215.100 103.800 215.200 103.900 215.200 H 113.700 C 113.800 215.200 113.700 215.100 113.700 215.200 V 220.100 C 113.700 220.155 113.745 220.200 113.800 220.200 H 123.800 C 123.855 220.200 123.900 220.155 123.900 220.100 V 215.200 C 123.900 215.100 123.800 215.200 123.900 215.200 H 133.700 C 133.800 215.200 133.700 215.100 133.700 215.200 V 220.100 C 133.700 220.155 133.745 220.200 133.800 220.200 H 143.800 C 143.855 220.200 143.900 220.155 143.900 220.100 V 215.200 C 143.900 215.100 143.800 215.200 143.900 215.200 H 153.700 C 153.800 215.200 153.700 215.100 153.700 215.200 V 220.100 C 153.700 220.155 153.745 220.200 153.800 220.200 H 163.800 C 163.855 220.200 163.900 220.155 163.900 220.100 V 215.200 C 163.900 215.100 163.800 215.200 163.900 215.200 H 173.700 C 173.800 215.200 173.700 215.100 173.700 215.200 V 220.100 C 173.700 220.155 173.745 220.200 173.800 220.200 H 183.800 C 183.855 220.200 183.900 220.155 183.900 220.100 V 215.200 C 183.900 215.100 183.800 215.200 183.900 215.200 H 193.700 C 193.800 215.200 193.700 215.100 193.700 215.200 V 220.100 C 193.700 220.155 193.745 220.200 193.800 220.200 H 203.800 C 203.855 220.200 203.900 220.155 203.900 220.100 V 215.200 C 203.900 215.100 203.800 215.200 203.900 215.200 H 213.700 C 213.800 215.200 213.700 215.100 213.700 215.200 V 220.100 C 213.700 220.155 213.745 220.200 213.800 220.200 H 223.800 C 223.855 220.200 223.900 220.155 223.900 220.100 V 215.200 C 223.900 215.100 223.800 215.200 223.900 215.200 H 233.700 C 233.800 215.200 233.700 215.100 233.700 215.200 V 220.100 C 233.700 220.155 233.745 220.200 233.800 220.200 H 243.800 C 243.855 220.200 243.900 220.155 243.900 220.100 V 215.200 C 243.900 215.100 243.800 215.200 243.900 215.200 H 253.700 C 253.800 215.200 253.700 215.100 253.700 215.200 V 220.100 C 253.700 220.155 253.745 220.200 253.800 220.200 H 263.800 C 263.855 220.200 263.900 220.155 263.900 220.100 V 215.200 C 263.900 215.100 263.800 215.200 263.900 215.200 H 273.800 C 273.855 215.200 273.900 215.155 273.900 215.100 V 200.200 C 273.900 200.100 273.800 200.200 273.900 200.200 H 278.800 C 278.855 200.200 278.900 200.155 278.900 200.100 V 190.100 C 278.900 190.045 278.855 190.000 278.800 190.000 H 273.900 C 273.800 190.000 273.900 190.100 273.900 190.000 V 180.200 C 273.900 180.100 273.800 180.200 273.900 180.200 H 278.800 C 278.855 180.200 278.900 180.155 278.900 180.100 V 170.100 C 278.900 170.045 278.855 170.000 278.800 170.000 H 273.900 C 273.800 170.000 273.900 170.100 273.900 170.000 V 160.200 C 273.900 160.100 273.800 160.200 273.900 160.200 H 278.800 C 278.855 160.200 278.900 160.155 278.900 160.100 V 150.100 C 278.900 150.045 278.855 150.000 278.800 150.000 H 273.900 C 273.800 150.000 273.900 150.100 273.900 150.000 V 140.200 C 273.900 140.100 273.800 140.200 273.900 140.200 H 278.800 C 278.855 140.200 278.900 140.155 278.900 140.100 V 130.100 C 278.900 130.045 278.855 130.000 278.800 130.000 H 273.900 C 273.800 130.000 273.900 130.100 273.900 130.000 V 120.200 C 273.900 120.100 273.800 120.200 273.900 120.200 H 278.800 C 278.855 120.200 278.900 120.155 278.900 120.100 V 110.100 C 278.900 110.045 278.855 110.000 278.800 110.000 H 273.900 C 273.800 110.000 273.900 110.100 273.900 110.000 V 100.200 C 273.900 100.100 273.800 100.200 273.900 100.200 H 278.800 C 278.855 100.200 278.900 100.155 278.900 100.100 V 90.100 C 278.900 90.045 278.855 90.000 278.800 90.000 H 273.900 C 273.800 90.000 273.900 90.100 273.900 90.000 V 80.200 C 273.900 80.100 273.800 80.200 273.900 80.200 H 278.800 C 278.855 80.200 278.900 80.155 278.900 80.100 V 70.100 C 278.900 70.045 278.855 70.000 278.800 70.000 H 273.900 C 273.800 70.000 273.900 70.100 273.900 70.000 V 60.200 C 273.900 60.100 273.800 60.200 273.900 60.200 H 278.800 C 278.855 60.200 278.900 60.155 278.900 60.100 V 50.100 C 278.900 50.045 278.855 50.000 278.800 50.000 H 273.900 C 273.800 50.000 273.900 50.100 273.900 50.000 V 40.200 C 273.900 40.100 273.800 40.200 273.900 40.200 H 278.800 C 278.855 40.200 278.900 40.155 278.900 40.100 V 30.100 C 278.900 30.045 278.855 30.000 278.800 30.000 H 273.900 C 273.800 30.000 273.900 30.100 273.900 30.000 V 15.100 C 273.900 15.045 273.855 15.000 273.800 15.000 H 263.900 C 263.800 15.000 263.900 15.100 263.900 15.000 V 10.100 C 263.900 10.045 263.855 10.000 263.800 10.000 H 253.800 C 253.745 10.000 253.700 10.045 253.700 10.100 V 15.000 C 253.700 15.100 253.800 15.000 253.700 15.000 H 243.900 C 243.800 15.000 243.900 15.100 243.900 15.000 V 10.100 C 243.900 10.045 243.855 10.000 243.800 10.000 H 233.800 C 233.745 10.000 233.700 10.045 233.700 10.100 V 15.000 C 233.700 15.100 233.800 15.000 233.700 15.000 H 223.900 C 223.800 15.000 223.900 15.100 223.900 15.000 V 10.100 C 223.900 10.045 223.855 10.000 223.800 10.000 H 213.800 C 213.745 10.000 213.700 10.045 213.700 10.100 V 15.000 C 213.700 15.100 213.800 15.000 213.700 15.000 H 203.900 C 203.800 15.000 203.900 15.100 203.900 15.000 V 10.100 C 203.900 10.045 203.855 10.000 203.800 10.000 H 193.800 C 193.745 10.000 193.700 10.045 193.700 10.100 V 15.000 C 193.700 15.100 193.800 15.000 193.700 15.000 H 183.900 C 183.800 15.000 183.900 15.100 183.900 15.000 V 10.100 C 183.900 10.045 183.855 10.000 183.800 10.000 H 173.800 C 173.745 10.000 173.700 10.045 173.700 10.100 V 15.000 C 173.700 15.100 173.800 15.000 173.700 15.000 H 163.900 C 163.800 15.000 163.900 15.100 163.900 15.000 V 10.100 C 163.900 10.045 163.855 10.000 163.800 10.000 H 153.800 C 153.745 10.000 153.700 10.045 153.700 10.100 V 15.000 C 153.700 15.100 153.800 15.000 153.700 15.000 H 143.900 C 143.800 15.000 143.900 15.100 143.900 15.000 V 10.100 C 143.900 10.045 143.855 10.000 143.800 10.000 H 133.800 C 133.745 10.000 133.700 10.045 133.700 10.100 V 15.000 C 133.700 15.100 133.800 15.000 133.700 15.000 H 123.900 C 123.800 15.000 123.900 15.100 123.900 15.000 V 10.100 C 123.900 10.045 123.855 10.000 123.800 10.000 H 113.800 C 113.745 10.000 113.700 10.045 113.700 10.100 V 15.000 C 113.700 15.100 113.800 15.000 113.700 15.000 H 103.900 C 103.800 15.000 103.900 15.100 103.900 15.000 V 10.100 C 103.900 10.045 103.855 10.000 103.800 10.000 H 93.800 C 93.745 10.000 93.700 10.045 93.700 10.100 V 15.000 C 93.700 15.100 93.800 15.000 93.700 15.000 H 83.900 C 83.800 15.000 83.900 15.100 83.900 15.000 V 10.100 C 83.900 10.045 83.855 10.000 83.800 10.000 H 73.800 C 73.745 10.000 73.700 10.045 73.700 10.100 V 15.000 C 73.700 15.100 73.800 15.000 73.700 15.000 H 63.900 C 63.800 15.000 63.900 15.100 63.900 15.000 V 10.100 C 63.900 10.045 63.855 10.000 63.800 10.000 H 53.800 C 53.745 10.000 53.700 10.045 53.700 10.100 V 15.000 C 53.700 15.100 53.800 15.000 53.700 15.000 H 43.900 C 43.800 15.000 43.900 15.100 43.900 15.000 V 10.100 C 43.900 10.045 43.855 10.000 43.800 10.000 H 33.800 C 33.745 10.000 33.700 10.045 33.700 10.100 V 15.000 C 33.700 15.100 33.800 15.000 33.700 15.000 H 23.800 C 23.745 15.000 23.700 15.045 23.700 15.100 V 30.000 C 23.700 30.100 23.800 30.000 23.700 30.000 H 18.800 C 18.745 30.000 18.700 30.045 18.700 30.100 V 40.100 C 18.700 40.155 18.745 40.200 18.800 40.200 H 23.700 C 23.800 40.200 23.700 40.100 23.700 40.200 V 50.000 C 23.700 50.100 23.800 50.000 23.700 50.000 H 18.800 C 18.745 50.000 18.700 50.045 18.700 50.100 V 60.100 C 18.700 60.155 18.745 60.200 18.800 60.200 H 23.700 C 23.800 60.200 23.700 60.100 23.700 60.200 V 70.000 C 23.700 70.100 23.800 70.000 23.700 70.000 H 18.800 C 18.745 70.000 18.700 70.045 18.700 70.100 V 80.100 C 18.700 80.155 18.745 80.200 18.800 80.200 H 23.700 C 23.800 80.200 23.700 80.100 23.700 80.200 V 90.000 C 23.700 90.100 23.800 90.000 23.700 90.000 H 18.800 C 18.745 90.000 18.700 90.045 18.700 90.100 V 100.100 C 18.700 100.155 18.745 100.200 18.800 100.200 H 23.700 C 23.800 100.200 23.700 100.100 23.700 100.200 V 110.000 C 23.700 110.100 23.800 110.000 23.700 110.000 H 18.800 C 18.745 110.000 18.700 110.045 18.700 110.100 V 120.100 C 18.700 120.155 18.745 120.200 18.800 120.200 H 23.700 C 23.800 120.200 23.700 120.100 23.700 120.200 V 130.000 C 23.700 130.100 23.800 130.000 23.700 130.000 H 18.800 C 18.745 130.000 18.700 130.045 18.700 130.100 V 140.100 C 18.700 140.155 18.745 140.200 18.800 140.200 H 23.700 C 23.800 140.200 23.700 140.100 23.700 140.200 V 150.000 C 23.700 150.100 23.800 150.000 23.700 150.000 H 18.800 C 18.745 150.000 18.700 150.045 18.700 150.100 V 160.100 C 18.700 160.155 18.745 160.200 18.800 160.200 H 23.700 C 23.800 160.200 23.700 160.100 23.700 160.200 V 170.000 C 23.700 170.100 23.800 170.000 23.700 170.000 H 18.800 C 18.745 170.000 18.700 170.045 18.700 170.100 V 180.100 C 18.700 180.155 18.745 180.200 18.800 180.200 H 23.700 C 23.800 180.200 23.700 180.100 23.700 180.200 V 190.000 C 23.700 190.100 23.800 190.000 23.700 190.000 H 18.800 C 18.745 190.000 18.700 190.045 18.700 190.100 V 200.100 C 18.700 200.155 18.745 200.200 18.800 200.200 H 23.700 C 23.800 200.200 23.700 200.100 23.700 200.200 V 215.100 C 23.700 215.155 23.745 215.200 23.800 215.200" stroke="rgb(0,0,0)" stroke-width="0.20" />
</g>
<g id="p-6" style="fill:none;stroke-linecap:round;stroke-linejoin:round;">
  <text dominant-baseline="hanging" font-size="4px" style="font-family: sans-serif ; font-weight: normal; font-style: normal; fill: rgb(255,0,0)" text-anchor="middle" transform="matrix( 1.000 0.000 0.000 1.000 411.500 113.200 )">Bottom</text><path d="M 286.500 215.200 H 296.400 C 296.500 215.200 296.400 215.100 296.400 215.200 V 220.100 C 296.400 220.155 296.445 220.200 296.500 220.200 H 306.500 C 306.555 220.200 306.600 220.155 306.600 220.100 V 215.200 C 306.600 215.100 306.500 215.200 306.600 215.200 H 316.400 C 316.500 215.200 316.400 215.100 316.400 215.200 V 220.100 C 316.400 220.155 316.445 220.200 316.500 220.200 H 326.500 C 326.555 220.200 326.600 220.155 326.600 220.100 V 215.200 C 326.600 215.100 326.500 215.200 326.600 215.200 H 336.400 C 336.500 215.200 336.400 215.100 336.400 215.200 V 220.100 C 336.400 220.155 336.445 220.200 336.500 220.200 H 346.500 C 346.555 220.200 346.600 220.155 346.600 220.100 V 215.200 C 346.600 215.100 346.500 215.200 346.600 215.200 H 356.400 C 356.500 215.200 356.400 215.100 356.400 215.200 V 220.100 C 356.400 220.155 356.445 220.200 356.500 220.200 H 366.500 C 366.555 220.200 366.600 220.155 366.600 220.100 V 215.200 C 366.600 215.100 366.500 215.200 366.600 215.200 H 376.400 C 376.500 215.200 376.400 215.100 376.400 215.200 V 220.100 C 376.400 220.155 376.445 220.200 376.500 220.200 H 386.500 C 386.555 220.200 386.600 220.155 386.600 220.100 V 215.200 C 386.600 215.100 386.500 215.200 386.600 215.200 H 396.400 C 396.500 215.200 396.400 215.100 396.400 215.200 V 220.100 C 396.400 220.155 396.445 220.200 396.500 220.200 H 406.500 C 406.555 220.200 406.600 220.155 406.600 220.100 V 215.200 C 406.600 215.100 406.500 215.200 406.600 215.200 H 416.400 C 416.500 215.200 416.400 215.100 416.400 215.200 V 220.100 C 416.400 220.155 416.445 220.200 416.500 220.200 H 426.500 C 426.555 220.200 426.600 220.155 426.600 220.100 V 215.200 C 426.600 215.100 426.500 215.200 426.600 215.200 H 436.400 C 436.500 215.200 436.400 215.100 436.400 215.200 V 220.100 C 436.400 220.155 436.445 220.200 436.500 220.200 H 446.500 C 446.555 220.200 446.600 220.155 446.600 220.100 V 215.200 C 446.600 215.100 446.500 215.200 446.600 215.200 H 456.400 C 456.500 215.200 456.400 215.100 456.400 215.200 V 220.100 C 456.400 220.155 456.445 220.200 456.500 220.200 H 466.500 C 466.555 220.200 466.600 220.155 466.600 220.100 V 215.200 C 466.600 215.100 466.500 215.200 466.600 215.200 H 476.400 C 476.500 215.200 476.400 215.100 476.400 215.200 V 220.100 C 476.400 220.155 476.445 220.200 476.500 220.200 H 486.500 C 486.555 220.200 486.600 220.155 486.600 220.100 V 215.200 C 486.600 215.100 486.500 215.200 486.600 215.200 H 496.400 C 496.500 215.200 496.400 215.100 496.400 215.200 V 220.100 C 496.400 220.155 496.445 220.200 496.500 220.200 H 506.500 C 506.555 220.200 506.600 220.155 506.600 220.100 V 215.200 C 506.600 215.100 506.500 215.200 506.600 215.200 H 516.400 C 516.500 215.200 516.400 215.100 516.400 215.200 V 220.100 C 516.400 220.155 516.445 220.200 516.500 220.200 H 526.500 C 526.555 220.200 526.600 220.155 526.600 220.100 V 215.200 C 526.600 215.100 526.500 215.200 526.600 215.200 H 536.500 C 536.555 215.200 536.600 215.155 536.600 215.100 V 200.200 C 536.600 200.100 536.500 200.200 536.600 200.200 H 541.500 C 541.555 200.200 541.600 200.155 541.600 200.100 V 190.100 C 541.600 190.045 541.555 190.000 541.500 190.000 H 536.600 C 536.500 190.000 536.600 190.100 536.600 190.000 V 180.200 C 536.600 180.100 536.500 180.200 536.600 180.200 H 541.500 C 541.555 180.200 541.600 180.155 541.600 180.100 V 170.100 C 541.600 170.045 541.555 170.000 541.500 170.000 H 536.600 C 536.500 170.000 536.600 170.100 536.600 170.000 V 160.200 C 536.600 160.100 536.500 160.200 536.600 160.200 H 541.500 C 541.555 160.200 541.600 160.155 541.600 160.100 V 150.100 C 541.600 150.045 541.555 150.000 541.500 150.000 H 536.600 C 536.500 150.000 536.600 150.100 536.600 150.000 V 140.200 C 536.600 140.100 536.500 140.200 536.600 140.200 H 541.500 C 541.555 140.200 541.600 140.155 541.600 140.100 V 130.100 C 541.600 130.045 541.555 130.000 541.500 130.000 H 536.600 C 536.500 130.000 536.600 130.100 536.600 130.000 V 120.200 C 536.600 120.100 536.500 120.200 536.600 120.200 H 541.500 C 541.555 120.200 541.600 120.155 541.600 120.100 V 110.100 C 541.600 110.045 541.555 110.000 541.500 110.000 H 536.600 C 536.500 110.000 536.600 110.100 536.600 110.000 V 100.200 C 536.600 100.100 536.500 100.200 536.600 100.200 H 541.500 C 541.555 100.200 541.600 100.155 541.600 100.100 V 90.100 C 541.600 90.045 541.555 90.000 541.500 90.000 H 536.600 C 536.500 90.000 536.600 90.100 536.600 90.000 V 80.200 C 536.600 80.100 536.500 80.200 536.600 80.200 H 541.500 C 541.555 80.200 541.600 80.155 541.600 80.100 V 70.100 C 541.600 70.045 541.555 70.000 541.500 70.000 H 536.600 C 536.500 70.000 536.600 70.100 536.600 70.000 V 60.200 C 536.600 60.100 536.500 60.200 536.600 60.200 H 541.500 C 541.555 60.200 541.600 60.155 541.600 60.100 V 50.100 C 541.600 50.045 541.555 50.000 541.500 50.000 H 536.600 C 536.500 50.000 536.600 50.100 536.600 50.000 V 40.200 C 536.600 40.100 536.500 40.200 536.600 40.200 H 541.500 C 541.555 40.200 541.600 40.155 541.600 40.100 V 30.100 C 541.600 30.045 541.555 30.000 541.500 30.000 H 536.600 C 536.500 30.000 536.600 30.100 536.600 30.000 V 15.100 C 536.600 15.045 536.555 15.000 536.500 15.000 H 526.600 C 526.500 15.000 526.600 15.100 526.600 15.000 V 10.100 C 526.600 10.045 526.555 10.000 526.500 10.000 H 516.500 C 516.445 10.000 516.400 10.045 516.400 10.100 V 15.000 C 516.400 15.100 516.500 15.000 516.400 15.000 H 506.600 C 506.500 15.000 506.600 15.100 506.600 15.000 V 10.100 C 506.600 10.045 506.555 10.000 506.500 10.000 H 496.500 C 496.445 10.000 496.400 10.045 496.400 10.100 V 15.000 C 496.400 15.100 496.500 15.000 496.400 15.000 H 486.600 C 486.500 15.000 486.600 15.100 486.600 15.000 V 10.100 C 486.600 10.045 486.555 10.000 486.500 10.000 H 476.500 C 476.445 10.000 476.400 10.045 476.400 10.100 V 15.000 C 476.400 15.100 476.500 15.000 476.400 15.000 H 466.600 C 466.500 15.000 466.600 15.100 466.600 15.000 V 10.100 C 466.600 10.045 466.555 10.000 466.500 10.000 H 456.500 C 456.445 10.000 456.400 10.045 456.400 10.100 V 15.000 C 456.400 15.100 456.500 15.000 456.400 15.000 H 446.600 C 446.500 15.000 446.600 15.100 446.600 15.000 V 10.100 C 446.600 10.045 446.555 10.000 446.500 10.000 H 436.500 C 436.445 10.000 436.400 10.045 436.400 10.100 V 15.000 C 436.400 15.100 436.500 15.000 436.400 15.000 H 426.600 C 426.500 15.000 426.600 15.100 426.600 15.000 V 10.100 C 426.600 10.045 426.555 10.000 426.500 10.000 H 416.500 C 416.445 10.000 416.400 10.045 416.400 10.100 V 15.000 C 416.400 15.100 416.500 15.000 416.400 15.000 H 406.600 C 406.500 15.000 406.600 15.100 406.600 15.000 V 10.100 C 406.600 10.045 406.555 10.000 406.500 10.000 H 396.500 C 396.445 10.000 396.400 10.045 396.400 10.100 V 15.000 C 396.400 15.100 396.500 15.000 396.400 15.000 H 386.600 C 386.500 15.000 386.600 15.100 386.600 15.000 V 10.100 C 386.600 10.045 386.555 10.000 386.500 10.000 H 376.500 C 376.445 10.000 376.400 10.045 376.400 10.100 V 15.000 C 376.400 15.100 376.500 15.000 376.400 15.000 H 366.600 C 366.500 15.000 366.600 15.100 366.600 15.000 V 10.100 C 366.600 10.045 366.555 10.000 366.500 10.000 H 356.500 C 356.445 10.000 356.400 10.045 356.400 10.100 V 15.000 C 356.400 15.100 356.500 15.000 356.400 15.000 H 346.600 C 346.500 15.000 346.600 15.100 346.600 15.000 V 10.100 C 346.600 10.045 346.555 10.000 346.500 10.000 H 336.500 C 336.445 10.000 336.400 10.045 336.400 10.100 V 15.000 C 336.400 15.100 336.500 15.000 336.400 15.000 H 326.600 C 326.500 15.000 326.600 15.100 326.600 15.000 V 10.100 C 326.600 10.045 326.555 10.000 326.500 10.000 H 316.500 C 316.445 10.000 316.400 10.045 316.400 10.100 V 15.000 C 316.400 15.100 316.500 15.000 316.400 15.000 H 306.600 C 306.500 15.000 306.600 15.100 306.600 15.000 V 10.100 C 306.600 10.045 306.555 10.000 306.500 10.000 H 296.500 C 296.445 10.000 296.400 10.045 296.400 10.100 V 15.000 C 296.400 15.100 296.500 15.000 296.400 15.000 H 286.500 C 286.445 15.000 286.400 15.045 286.400 15.100 V 30.000 C 286.400 30.100 286.500 30.000 286.400 30.000 H 281.500 C 281.445 30.000 281.400 30.045 281.400 30.100 V 40.100 C 281.400 40.155 281.445 40.200 281.500 40.200 H 286.400 C 286.500 40.200 286.400 40.100 286.400 40.200 V 50.000 C 286.400 50.100 286.500 50.000 286.400 50.000 H 281.500 C 281.445 50.000 281.400 50.045 281.400 50.100 V 60.100 C 281.400 60.155 281.445 60.200 281.500 60.200 H 286.400 C 286.500 60.200 286.400 60.100 286.400 60.200 V 70.000 C 286.400 70.100 286.500 70.000 286.400 70.000 H 281.500 C 281.445 70.000 281.400 70.045 281.400 70.100 V 80.100 C 281.400 80.155 281.445 80.200 281.500 80.200 H 286.400 C 286.500 80.200 286.400 80.100 286.400 80.200 V 90.000 C 286.400 90.100 286.500 90.000 286.400 90.000 H 281.500 C 281.445 90.000 281.400 90.045 281.400 90.100 V 100.100 C 281.400 100.155 281.445 100.200 281.500 100.200 H 286.400 C 286.500 100.200 286.400 100.100 286.400 100.200 V 110.000 C 286.400 110.100 286.500 110.000 286.400 110.000 H 281.500 C 281.445 110.000 281.400 110.045 281.400 110.100 V 120.100 C 281.400 120.155 281.445 120.200 281.500 120.200 H 286.400 C 286.500 120.200 286.400 120.100 286.400 120.200 V 130.000 C 286.400 130.100 286.500 130.000 286.400 130.000 H 281.500 C 281.445 130.000 281.400 130.045 281.400 130.100 V 140.100 C 281.400 140.155 281.445 140.200 281.500 140.200 H 286.400 C 286.500 140.200 286.400 140.100 286.400 140.200 V 150.000 C 286.400 150.100 286.500 150.000 286.400 150.000 H 281.500 C 281.445 150.000 281.400 150.045 281.400 150.100 V 160.100 C 281.400 160.155 281.445 160.200 281.500 160.200 H 286.400 C 286.500 160.200 286.400 160.100 286.400 160.200 V 170.000 C 286.400 170.100 286.500 170.000 286.400 170.000 H 281.500 C 281.445 170.000 281.400 170.045 281.400 170.100 V 180.100 C 281.400 180.155 281.445 180.200 281.500 180.200 H 286.400 C 286.500 180.200 286.400 180.100 286.400 180.200 V 190.000 C 286.400 190.100 286.500 190.000 286.400 190.000 H 281.500 C 281.445 190.000 281.400 190.045 281.400 190.100 V 200.100 C 281.400 200.155 281.445 200.200 281.500 200.200 H 286.400 C 286.500 200.200 286.400 200.100 286.400 200.200 V 215.100 C 286.400 215.155 286.445 215.200 286.500 215.200" stroke="rgb(0,0,0)" stroke-width="0.20" />
</g>
</svg>