<?xml version='1.0' encoding='utf-8'?>
<svg height="179.70mm" viewBox="0.0 0.0 137.60 179.70" width="137.60mm" xmlns="http://www.w3.org/2000/svg" xmlns:cc="http://creativecommons.org/ns#" xmlns:dc="http://purl.org/dc/elements/1.1/" xmlns:inkscape="http://www.inkscape.org/namespaces/inkscape" xmlns:rdf="http://www.w3.org/1999/02/22-rdf-syntax-ns#" xmlns:svg="http://www.w3.org/2000/svg" xmlns:xlink="http://www.w3.org/1999/xlink">
<!--
SlidingDrawer - Sliding drawer box

Created with Boxes.py (https://festi.info/boxes.py)
Creation date: 2024-02-20 16:30:15
Command line (remove spaces between dashes): boxes SlidingDrawer - -x=40 - -y=40 - -h=20 - -outside=0 - -outside=1
Url: http://www.festi.info/boxes.py/SlidingDrawer?FingerJoint_angle=90.0&FingerJoint_style=rectangular&FingerJoint_surroundingspaces=2.0&FingerJoint_bottom_lip=0.0&FingerJoint_edge_width=1.0&FingerJoint_extra_length=0.0&FingerJoint_finger=2.0&FingerJoint_play=0.0&FingerJoint_space=2.0&FingerJoint_width=1.0&Grooved_arc_angle=120&Grooved_gap=0.1&Grooved_interleave=0&Grooved_inverse=0&Grooved_margin=0.3&Grooved_style=arc&Grooved_tri_angle=30&Grooved_width=0.4&x=40&y=40&h=20&outside=0&outside=1&play=0.15&thickness=3.0&format=svg&tabs=0.0&qr_code=0&debug=0&labels=0&labels=1&reference=100&inner_corners=loop&burn=0.1&language=fr&render=2
Url short: http://www.festi.info/boxes.py/SlidingDrawer?x=40&y=40&h=20&outside=0&outside=1
SettingsUrl: http://www.festi.info/boxes.py/SlidingDrawer?FingerJoint_angle=90.0&FingerJoint_style=rectangular&FingerJoint_surroundingspaces=2.0&FingerJoint_bottom_lip=0.0&FingerJoint_edge_width=1.0&FingerJoint_extra_length=0.0&FingerJoint_finger=2.0&FingerJoint_play=0.0&FingerJoint_space=2.0&FingerJoint_width=1.0&Grooved_arc_angle=120&Grooved_gap=0.1&Grooved_interleave=0&Grooved_inverse=0&Grooved_margin=0.3&Grooved_style=arc&Grooved_tri_angle=30&Grooved_width=0.4&x=40&y=40&h=20&outside=0&outside=1&play=0.15&thickness=3.0&format=svg&tabs=0.0&qr_code=0&debug=0&labels=0&labels=1&reference=100&inner_corners=loop&burn=0.1&language=fr&render=2
SettingsUrl short: http://www.festi.info/boxes.py/SlidingDrawer?x=40&y=40&h=20&outside=0&outside=1
-->
<title>SlidingDrawer</title>
<metadata>
<rdf:RDF><cc:Work>
<dc:title>Box - SlidingDrawer</dc:title>
<dc:date>2024-02-20 16:30:15</dc:date>
<dc:source>http://www.festi.info/boxes.py/SlidingDrawer?FingerJoint_angle=90.0&amp;FingerJoint_style=rectangular&amp;FingerJoint_surroundingspaces=2.0&amp;FingerJoint_bottom_lip=0.0&amp;FingerJoint_edge_width=1.0&amp;FingerJoint_extra_length=0.0&amp;FingerJoint_finger=2.0&amp;FingerJoint_play=0.0&amp;FingerJoint_space=2.0&amp;FingerJoint_width=1.0&amp;Grooved_arc_angle=120&amp;Grooved_gap=0.1&amp;Grooved_interleave=0&amp;Grooved_inverse=0&amp;Grooved_margin=0.3&amp;Grooved_style=arc&amp;Grooved_tri_angle=30&amp;Grooved_width=0.4&amp;x=40&amp;y=40&amp;h=20&amp;outside=0&amp;outside=1&amp;play=0.15&amp;thickness=3.0&amp;format=svg&amp;tabs=0.0&amp;qr_code=0&amp;debug=0&amp;labels=0&amp;labels=1&amp;reference=100&amp;inner_corners=loop&amp;burn=0.1&amp;language=fr&amp;render=2</dc:source>
<dc:source>http://www.festi.info/boxes.py/SlidingDrawer?x=40&amp;y=40&amp;h=20&amp;outside=0&amp;outside=1</dc:source>
<dc:description>Sliding drawer box

Created with Boxes.py (https://festi.info/boxes.py)
Command line: boxes SlidingDrawer --FingerJoint_angle=90.0 --FingerJoint_style=rectangular --FingerJoint_surroundingspaces=2.0 --FingerJoint_bottom_lip=0.0 --FingerJoint_edge_width=1.0 --FingerJoint_extra_length=0.0 --FingerJoint_finger=2.0 --FingerJoint_play=0.0 --FingerJoint_space=2.0 --FingerJoint_width=1.0 --Grooved_arc_angle=120 --Grooved_gap=0.1 --Grooved_interleave=0 --Grooved_inverse=0 --Grooved_margin=0.3 --Grooved_style=arc --Grooved_tri_angle=30 --Grooved_width=0.4 --x=40 --y=40 --h=20 --outside=0 --outside=1 --play=0.15 --thickness=3.0 --format=svg --tabs=0.0 --qr_code=0 --debug=0 --labels=0 --labels=1 --reference=100 --inner_corners=loop --burn=0.1
Command line short: boxes SlidingDrawer --x=40 --y=40 --h=20 --outside=0 --outside=1
Url: http://www.festi.info/boxes.py/SlidingDrawer?FingerJoint_angle=90.0&amp;FingerJoint_style=rectangular&amp;FingerJoint_surroundingspaces=2.0&amp;FingerJoint_bottom_lip=0.0&amp;FingerJoint_edge_width=1.0&amp;FingerJoint_extra_length=0.0&amp;FingerJoint_finger=2.0&amp;FingerJoint_play=0.0&amp;FingerJoint_space=2.0&amp;FingerJoint_width=1.0&amp;Grooved_arc_angle=120&amp;Grooved_gap=0.1&amp;Grooved_interleave=0&amp;Grooved_inverse=0&amp;Grooved_margin=0.3&amp;Grooved_style=arc&amp;Grooved_tri_angle=30&amp;Grooved_width=0.4&amp;x=40&amp;y=40&amp;h=20&amp;outside=0&amp;outside=1&amp;play=0.15&amp;thickness=3.0&amp;format=svg&amp;tabs=0.0&amp;qr_code=0&amp;debug=0&amp;labels=0&amp;labels=1&amp;reference=100&amp;inner_corners=loop&amp;burn=0.1&amp;language=fr&amp;render=2
Url short: http://www.festi.info/boxes.py/SlidingDrawer?x=40&amp;y=40&amp;h=20&amp;outside=0&amp;outside=1
SettingsUrl: http://www.festi.info/boxes.py/SlidingDrawer?FingerJoint_angle=90.0&amp;FingerJoint_style=rectangular&amp;FingerJoint_surroundingspaces=2.0&amp;FingerJoint_bottom_lip=0.0&amp;FingerJoint_edge_width=1.0&amp;FingerJoint_extra_length=0.0&amp;FingerJoint_finger=2.0&amp;FingerJoint_play=0.0&amp;FingerJoint_space=2.0&amp;FingerJoint_width=1.0&amp;Grooved_arc_angle=120&amp;Grooved_gap=0.1&amp;Grooved_interleave=0&amp;Grooved_inverse=0&amp;Grooved_margin=0.3&amp;Grooved_style=arc&amp;Grooved_tri_angle=30&amp;Grooved_width=0.4&amp;x=40&amp;y=40&amp;h=20&amp;outside=0&amp;outside=1&amp;play=0.15&amp;thickness=3.0&amp;format=svg&amp;tabs=0.0&amp;qr_code=0&amp;debug=0&amp;labels=0&amp;labels=1&amp;reference=100&amp;inner_corners=loop&amp;burn=0.1&amp;language=fr&amp;render=2
SettingsUrl short: http://www.festi.info/boxes.py/SlidingDrawer?x=40&amp;y=40&amp;h=20&amp;outside=0&amp;outside=1
</dc:description>
</cc:Work></rdf:RDF></metadata>
<g id="p-0" style="fill:none;stroke-linecap:round;stroke-linejoin:round;">
  <path d="M 18.800 169.700 H 118.800 V 159.700 H 18.800 V 169.700 Z" stroke="rgb(0,0,0)" stroke-width="0.20" />
  <text dominant-baseline="hanging" font-size="8px" style="font-family: sans-serif ; font-weight: normal; font-style: normal; fill: rgb(255,0,0)" text-anchor="middle" transform="matrix( 1.000 0.000 0.000 1.000 68.800 160.700 )">100.00mm, burn:0.10mm</text>
</g>
<g id="p-1" style="fill:none;stroke-linecap:round;stroke-linejoin:round;">
  <text dominant-baseline="hanging" font-size="4px" style="font-family: sans-serif ; font-weight: normal; font-style: normal; fill: rgb(255,0,0)" text-anchor="middle" transform="matrix( 1.000 0.000 0.000 1.000 35.350 149.450 )">in box wall</text><path d="M 21.800 158.000 H 32.350 C 32.405 158.000 32.450 157.955 32.450 157.900 V 155.000 C 32.450 154.900 32.350 155.000 32.450 155.000 H 38.250 C 38.350 155.000 38.250 154.900 38.250 155.000 V 157.900 C 38.250 157.955 38.295 158.000 38.350 158.000 H 48.900 H 51.900 C 51.955 158.000 52.000 157.955 52.000 157.900 V 154.900 V 152.850 C 52.000 152.795 51.955 152.750 51.900 152.750 H 49.000 C 48.900 152.750 49.000 152.850 49.000 152.750 V 146.950 C 49.000 146.850 48.900 146.950 49.000 146.950 H 51.900 C 51.955 146.950 52.000 146.905 52.000 146.850 V 144.800 C 52.000 144.745 51.955 144.700 51.900 144.700 H 48.900 H 40.770 C 40.734 144.700 40.701 144.719 40.683 144.750 C 40.143 145.686 39.365 146.464 38.429 147.004 C 37.493 147.545 36.431 147.829 35.350 147.829 C 34.269 147.829 33.207 147.545 32.271 147.004 C 31.335 146.464 30.557 145.686 30.017 144.750 C 29.999 144.719 29.966 144.700 29.930 144.700 H 21.800 H 18.800 C 18.745 144.700 18.700 144.745 18.700 144.800 V 146.850 C 18.700 146.905 18.745 146.950 18.800 146.950 H 21.700 C 21.800 146.950 21.700 146.850 21.700 146.950 V 152.750 C 21.700 152.850 21.800 152.750 21.700 152.750 H 18.800 C 18.745 152.750 18.700 152.795 18.700 152.850 V 154.900 V 157.900 C 18.700 157.955 18.745 158.000 18.800 158.000 H 21.800" stroke="rgb(0,0,0)" stroke-width="0.20" />
</g>
<g id="p-2" style="fill:none;stroke-linecap:round;stroke-linejoin:round;">
  <text dominant-baseline="hanging" font-size="4px" style="font-family: sans-serif ; font-weight: normal; font-style: normal; fill: rgb(255,0,0)" text-anchor="middle" transform="matrix( 1.000 0.000 0.000 1.000 71.650 149.450 )">in box wall</text><path d="M 56.600 155.000 H 62.550 C 62.650 155.000 62.550 154.900 62.550 155.000 V 157.900 C 62.550 157.955 62.595 158.000 62.650 158.000 H 68.650 C 68.705 158.000 68.750 157.955 68.750 157.900 V 155.000 C 68.750 154.900 68.650 155.000 68.750 155.000 H 74.550 C 74.650 155.000 74.550 154.900 74.550 155.000 V 157.900 C 74.550 157.955 74.595 158.000 74.650 158.000 H 80.650 C 80.705 158.000 80.750 157.955 80.750 157.900 V 155.000 C 80.750 154.900 80.650 155.000 80.750 155.000 H 86.700 C 86.755 155.000 86.800 154.955 86.800 154.900 V 152.950 C 86.800 152.850 86.700 152.950 86.800 152.950 H 89.700 C 89.755 152.950 89.800 152.905 89.800 152.850 V 146.850 C 89.800 146.795 89.755 146.750 89.700 146.750 H 86.800 C 86.700 146.750 86.800 146.850 86.800 146.750 V 144.800 C 86.800 144.745 86.755 144.700 86.700 144.700 H 56.600 C 56.545 144.700 56.500 144.745 56.500 144.800 V 146.750 C 56.500 146.850 56.600 146.750 56.500 146.750 H 53.600 C 53.545 146.750 53.500 146.795 53.500 146.850 V 152.850 C 53.500 152.905 53.545 152.950 53.600 152.950 H 56.500 C 56.600 152.950 56.500 152.850 56.500 152.950 V 154.900 C 56.500 154.955 56.545 155.000 56.600 155.000" stroke="rgb(0,0,0)" stroke-width="0.20" />
</g>
<g id="p-3" style="fill:none;stroke-linecap:round;stroke-linejoin:round;">
  <text dominant-baseline="hanging" font-size="4px" style="font-family: sans-serif ; font-weight: normal; font-style: normal; fill: rgb(255,0,0)" text-anchor="middle" transform="matrix( 1.000 0.000 0.000 1.000 71.650 134.650 )">in box wall</text><path d="M 56.600 140.200 H 62.550 C 62.650 140.200 62.550 140.100 62.550 140.200 V 143.100 C 62.550 143.155 62.595 143.200 62.650 143.200 H 68.650 C 68.705 143.200 68.750 143.155 68.750 143.100 V 140.200 C 68.750 140.100 68.650 140.200 68.750 140.200 H 74.550 C 74.650 140.200 74.550 140.100 74.550 140.200 V 143.100 C 74.550 143.155 74.595 143.200 74.650 143.200 H 80.650 C 80.705 143.200 80.750 143.155 80.750 143.100 V 140.200 C 80.750 140.100 80.650 140.200 80.750 140.200 H 86.700 C 86.755 140.200 86.800 140.155 86.800 140.100 V 138.150 C 86.800 138.050 86.700 138.150 86.800 138.150 H 89.700 C 89.755 138.150 89.800 138.105 89.800 138.050 V 132.050 C 89.800 131.995 89.755 131.950 89.700 131.950 H 86.800 C 86.700 131.950 86.800 132.050 86.800 131.950 V 130.000 C 86.800 129.945 86.755 129.900 86.700 129.900 H 56.600 C 56.545 129.900 56.500 129.945 56.500 130.000 V 131.950 C 56.500 132.050 56.600 131.950 56.500 131.950 H 53.600 C 53.545 131.950 53.500 131.995 53.500 132.050 V 138.050 C 53.500 138.105 53.545 138.150 53.600 138.150 H 56.500 C 56.600 138.150 56.500 138.050 56.500 138.150 V 140.100 C 56.500 140.155 56.545 140.200 56.600 140.200" stroke="rgb(0,0,0)" stroke-width="0.20" />
</g>
<g id="p-4" style="fill:none;stroke-linecap:round;stroke-linejoin:round;">
  <text dominant-baseline="hanging" font-size="4px" style="font-family: sans-serif ; font-weight: normal; font-style: normal; fill: rgb(255,0,0)" text-anchor="middle" transform="matrix( 1.000 0.000 0.000 1.000 35.350 134.650 )">in box wall</text><path d="M 21.800 143.200 H 32.350 C 32.405 143.200 32.450 143.155 32.450 143.100 V 140.200 C 32.450 140.100 32.350 140.200 32.450 140.200 H 38.250 C 38.350 140.200 38.250 140.100 38.250 140.200 V 143.100 C 38.250 143.155 38.295 143.200 38.350 143.200 H 48.900 H 51.900 C 51.955 143.200 52.000 143.155 52.000 143.100 V 140.100 V 138.050 C 52.000 137.995 51.955 137.950 51.900 137.950 H 49.000 C 48.900 137.950 49.000 138.050 49.000 137.950 V 132.150 C 49.000 132.050 48.900 132.150 49.000 132.150 H 51.900 C 51.955 132.150 52.000 132.105 52.000 132.050 V 130.000 C 52.000 129.945 51.955 129.900 51.900 129.900 H 48.900 H 21.800 H 18.800 C 18.745 129.900 18.700 129.945 18.700 130.000 V 132.050 C 18.700 132.105 18.745 132.150 18.800 132.150 H 21.700 C 21.800 132.150 21.700 132.050 21.700 132.150 V 137.950 C 21.700 138.050 21.800 137.950 21.700 137.950 H 18.800 C 18.745 137.950 18.700 137.995 18.700 138.050 V 140.100 V 143.100 C 18.700 143.155 18.745 143.200 18.800 143.200 H 21.800" stroke="rgb(0,0,0)" stroke-width="0.20" />
</g>
<g id="p-5" style="fill:none;stroke-linecap:round;stroke-linejoin:round;">
  <text dominant-baseline="hanging" font-size="4px" style="font-family: sans-serif ; font-weight: normal; font-style: normal; fill: rgb(255,0,0)" text-anchor="middle" transform="matrix( 1.000 0.000 0.000 1.000 36.850 109.850 )">in box bottom</text><path d="M 21.800 128.400 H 27.850 C 27.905 128.400 27.950 128.355 27.950 128.300 V 125.400 C 27.950 125.300 27.850 125.400 27.950 125.400 H 33.750 C 33.850 125.400 33.750 125.300 33.750 125.400 V 128.300 C 33.750 128.355 33.795 128.400 33.850 128.400 H 39.850 C 39.905 128.400 39.950 128.355 39.950 128.300 V 125.400 C 39.950 125.300 39.850 125.400 39.950 125.400 H 45.750 C 45.850 125.400 45.750 125.300 45.750 125.400 V 128.300 C 45.750 128.355 45.795 128.400 45.850 128.400 H 51.900 C 51.955 128.400 52.000 128.355 52.000 128.300 V 125.300 V 114.850 C 52.000 114.750 51.900 114.850 52.000 114.850 H 54.900 C 54.955 114.850 55.000 114.805 55.000 114.750 V 108.750 C 55.000 108.695 54.955 108.650 54.900 108.650 H 52.000 C 51.900 108.650 52.000 108.750 52.000 108.650 V 98.200 V 95.200 C 52.000 95.145 51.955 95.100 51.900 95.100 H 45.850 C 45.795 95.100 45.750 95.145 45.750 95.200 V 98.100 C 45.750 98.200 45.850 98.100 45.750 98.100 H 39.950 C 39.850 98.100 39.950 98.200 39.950 98.100 V 95.200 C 39.950 95.145 39.905 95.100 39.850 95.100 H 33.850 C 33.795 95.100 33.750 95.145 33.750 95.200 V 98.100 C 33.750 98.200 33.850 98.100 33.750 98.100 H 27.950 C 27.850 98.100 27.950 98.200 27.950 98.100 V 95.200 C 27.950 95.145 27.905 95.100 27.850 95.100 H 21.800 C 21.745 95.100 21.700 95.145 21.700 95.200 V 98.200 V 108.650 C 21.700 108.750 21.800 108.650 21.700 108.650 H 18.800 C 18.745 108.650 18.700 108.695 18.700 108.750 V 114.750 C 18.700 114.805 18.745 114.850 18.800 114.850 H 21.700 C 21.800 114.850 21.700 114.750 21.700 114.850 V 125.300 V 128.300 C 21.700 128.355 21.745 128.400 21.800 128.400" stroke="rgb(0,0,0)" stroke-width="0.20" />
</g>
<g id="p-6" style="fill:none;stroke-linecap:round;stroke-linejoin:round;">
  <text dominant-baseline="hanging" font-size="4px" style="font-family: sans-serif ; font-weight: normal; font-style: normal; fill: rgb(255,0,0)" text-anchor="middle" transform="matrix( 1.000 0.000 0.000 1.000 38.800 71.600 )">out box bottom</text><path d="M 18.800 93.600 H 28.300 C 28.355 93.600 28.400 93.555 28.400 93.500 V 90.600 C 28.400 90.500 28.300 90.600 28.400 90.600 H 34.200 C 34.300 90.600 34.200 90.500 34.200 90.600 V 93.500 C 34.200 93.555 34.245 93.600 34.300 93.600 H 40.300 C 40.355 93.600 40.400 93.555 40.400 93.500 V 90.600 C 40.400 90.500 40.300 90.600 40.400 90.600 H 46.200 C 46.300 90.600 46.200 90.500 46.200 90.600 V 93.500 C 46.200 93.555 46.245 93.600 46.300 93.600 H 55.800 H 58.800 C 58.855 93.600 58.900 93.555 58.900 93.500 V 90.500 V 82.500 C 58.900 82.445 58.855 82.400 58.800 82.400 H 55.900 C 55.800 82.400 55.900 82.500 55.900 82.400 V 76.600 C 55.900 76.500 55.800 76.600 55.900 76.600 H 58.800 C 58.855 76.600 58.900 76.555 58.900 76.500 V 70.500 C 58.900 70.445 58.855 70.400 58.800 70.400 H 55.900 C 55.800 70.400 55.900 70.500 55.900 70.400 V 64.600 C 55.900 64.500 55.800 64.600 55.900 64.600 H 58.800 C 58.855 64.600 58.900 64.555 58.900 64.500 V 56.500 V 53.500 C 58.900 53.445 58.855 53.400 58.800 53.400 H 55.800 H 46.300 C 46.245 53.400 46.200 53.445 46.200 53.500 V 56.400 C 46.200 56.500 46.300 56.400 46.200 56.400 H 40.400 C 40.300 56.400 40.400 56.500 40.400 56.400 V 53.500 C 40.400 53.445 40.355 53.400 40.300 53.400 H 34.300 C 34.245 53.400 34.200 53.445 34.200 53.500 V 56.400 C 34.200 56.500 34.300 56.400 34.200 56.400 H 28.400 C 28.300 56.400 28.400 56.500 28.400 56.400 V 53.500 C 28.400 53.445 28.355 53.400 28.300 53.400 H 18.800 C 18.745 53.400 18.700 53.445 18.700 53.500 V 56.500 V 90.500 V 93.500 C 18.700 93.555 18.745 93.600 18.800 93.600" stroke="rgb(0,0,0)" stroke-width="0.20" />
</g>
<g id="p-7" style="fill:none;stroke-linecap:round;stroke-linejoin:round;">
  <text dominant-baseline="hanging" font-size="4px" style="font-family: sans-serif ; font-weight: normal; font-style: normal; fill: rgb(255,0,0)" text-anchor="middle" transform="matrix( 1.000 0.000 0.000 1.000 80.500 71.600 )">out box top</text><path d="M 60.500 93.600 H 70.000 C 70.055 93.600 70.100 93.555 70.100 93.500 V 90.600 C 70.100 90.500 70.000 90.600 70.100 90.600 H 75.900 C 76.000 90.600 75.900 90.500 75.900 90.600 V 93.500 C 75.900 93.555 75.945 93.600 76.000 93.600 H 82.000 C 82.055 93.600 82.100 93.555 82.100 93.500 V 90.600 C 82.100 90.500 82.000 90.600 82.100 90.600 H 87.900 C 88.000 90.600 87.900 90.500 87.900 90.600 V 93.500 C 87.900 93.555 87.945 93.600 88.000 93.600 H 97.500 H 100.500 C 100.555 93.600 100.600 93.555 100.600 93.500 V 90.500 V 82.500 C 100.600 82.445 100.555 82.400 100.500 82.400 H 97.600 C 97.500 82.400 97.600 82.500 97.600 82.400 V 76.600 C 97.600 76.500 97.500 76.600 97.600 76.600 H 100.500 C 100.555 76.600 100.600 76.555 100.600 76.500 V 70.500 C 100.600 70.445 100.555 70.400 100.500 70.400 H 97.600 C 97.500 70.400 97.600 70.500 97.600 70.400 V 64.600 C 97.600 64.500 97.500 64.600 97.600 64.600 H 100.500 C 100.555 64.600 100.600 64.555 100.600 64.500 V 56.500 V 53.500 C 100.600 53.445 100.555 53.400 100.500 53.400 H 97.500 H 88.000 C 87.945 53.400 87.900 53.445 87.900 53.500 V 56.400 C 87.900 56.500 88.000 56.400 87.900 56.400 H 82.100 C 82.000 56.400 82.100 56.500 82.100 56.400 V 53.500 C 82.100 53.445 82.055 53.400 82.000 53.400 H 76.000 C 75.945 53.400 75.900 53.445 75.900 53.500 V 56.400 C 75.900 56.500 76.000 56.400 75.900 56.400 H 70.100 C 70.000 56.400 70.100 56.500 70.100 56.400 V 53.500 C 70.100 53.445 70.055 53.400 70.000 53.400 H 60.500 C 60.445 53.400 60.400 53.445 60.400 53.500 V 56.500 V 90.500 V 93.500 C 60.400 93.555 60.445 93.600 60.500 93.600" stroke="rgb(0,0,0)" stroke-width="0.20" />
</g>
<g id="p-8" style="fill:none;stroke-linecap:round;stroke-linejoin:round;">
  <text dominant-baseline="hanging" font-size="4px" style="font-family: sans-serif ; font-weight: normal; font-style: normal; fill: rgb(255,0,0)" text-anchor="middle" transform="matrix( 1.000 0.000 0.000 1.000 80.500 39.900 )">out box wall</text><path d="M 60.500 48.900 H 69.900 C 70.000 48.900 69.900 48.800 69.900 48.900 V 51.800 C 69.900 51.855 69.945 51.900 70.000 51.900 H 76.000 C 76.055 51.900 76.100 51.855 76.100 51.800 V 48.900 C 76.100 48.800 76.000 48.900 76.100 48.900 H 81.900 C 82.000 48.900 81.900 48.800 81.900 48.900 V 51.800 C 81.900 51.855 81.945 51.900 82.000 51.900 H 88.000 C 88.055 51.900 88.100 51.855 88.100 51.800 V 48.900 C 88.100 48.800 88.000 48.900 88.100 48.900 H 97.500 C 97.555 48.900 97.600 48.855 97.600 48.800 V 44.900 C 97.600 44.800 97.500 44.900 97.600 44.900 H 100.500 C 100.555 44.900 100.600 44.855 100.600 44.800 V 38.800 C 100.600 38.745 100.555 38.700 100.500 38.700 H 97.600 C 97.500 38.700 97.600 38.800 97.600 38.700 V 34.800 C 97.600 34.745 97.555 34.700 97.500 34.700 H 88.100 C 88.000 34.700 88.100 34.800 88.100 34.700 V 31.800 C 88.100 31.745 88.055 31.700 88.000 31.700 H 82.000 C 81.945 31.700 81.900 31.745 81.900 31.800 V 34.700 C 81.900 34.800 82.000 34.700 81.900 34.700 H 76.100 C 76.000 34.700 76.100 34.800 76.100 34.700 V 31.800 C 76.100 31.745 76.055 31.700 76.000 31.700 H 70.000 C 69.945 31.700 69.900 31.745 69.900 31.800 V 34.700 C 69.900 34.800 70.000 34.700 69.900 34.700 H 60.500 C 60.445 34.700 60.400 34.745 60.400 34.800 V 48.800 C 60.400 48.855 60.445 48.900 60.500 48.900" stroke="rgb(0,0,0)" stroke-width="0.20" />
</g>
<g id="p-9" style="fill:none;stroke-linecap:round;stroke-linejoin:round;">
  <text dominant-baseline="hanging" font-size="4px" style="font-family: sans-serif ; font-weight: normal; font-style: normal; fill: rgb(255,0,0)" text-anchor="middle" transform="matrix( 1.000 0.000 0.000 1.000 38.800 39.900 )">out box wall</text><path d="M 18.800 48.900 H 28.200 C 28.300 48.900 28.200 48.800 28.200 48.900 V 51.800 C 28.200 51.855 28.245 51.900 28.300 51.900 H 34.300 C 34.355 51.900 34.400 51.855 34.400 51.800 V 48.900 C 34.400 48.800 34.300 48.900 34.400 48.900 H 40.200 C 40.300 48.900 40.200 48.800 40.200 48.900 V 51.800 C 40.200 51.855 40.245 51.900 40.300 51.900 H 46.300 C 46.355 51.900 46.400 51.855 46.400 51.800 V 48.900 C 46.400 48.800 46.300 48.900 46.400 48.900 H 55.800 C 55.855 48.900 55.900 48.855 55.900 48.800 V 44.900 C 55.900 44.800 55.800 44.900 55.900 44.900 H 58.800 C 58.855 44.900 58.900 44.855 58.900 44.800 V 38.800 C 58.900 38.745 58.855 38.700 58.800 38.700 H 55.900 C 55.800 38.700 55.900 38.800 55.900 38.700 V 34.800 C 55.900 34.745 55.855 34.700 55.800 34.700 H 46.400 C 46.300 34.700 46.400 34.800 46.400 34.700 V 31.800 C 46.400 31.745 46.355 31.700 46.300 31.700 H 40.300 C 40.245 31.700 40.200 31.745 40.200 31.800 V 34.700 C 40.200 34.800 40.300 34.700 40.200 34.700 H 34.400 C 34.300 34.700 34.400 34.800 34.400 34.700 V 31.800 C 34.400 31.745 34.355 31.700 34.300 31.700 H 28.300 C 28.245 31.700 28.200 31.745 28.200 31.800 V 34.700 C 28.200 34.800 28.300 34.700 28.200 34.700 H 18.800 C 18.745 34.700 18.700 34.745 18.700 34.800 V 48.800 C 18.700 48.855 18.745 48.900 18.800 48.900" stroke="rgb(0,0,0)" stroke-width="0.20" />
</g>
<g id="p-10" style="fill:none;stroke-linecap:round;stroke-linejoin:round;">
  <text dominant-baseline="hanging" font-size="4px" style="font-family: sans-serif ; font-weight: normal; font-style: normal; fill: rgb(255,0,0)" text-anchor="middle" transform="matrix( 1.000 0.000 0.000 1.000 38.800 18.200 )">out box wall</text><path d="M 21.800 27.200 H 29.700 C 29.800 27.200 29.700 27.100 29.700 27.200 V 30.100 C 29.700 30.155 29.745 30.200 29.800 30.200 H 35.800 C 35.855 30.200 35.900 30.155 35.900 30.100 V 27.200 C 35.900 27.100 35.800 27.200 35.900 27.200 H 41.700 C 41.800 27.200 41.700 27.100 41.700 27.200 V 30.100 C 41.700 30.155 41.745 30.200 41.800 30.200 H 47.800 C 47.855 30.200 47.900 30.155 47.900 30.100 V 27.200 C 47.900 27.100 47.800 27.200 47.900 27.200 H 55.800 H 58.800 C 58.855 27.200 58.900 27.155 58.900 27.100 V 23.100 C 58.900 23.045 58.855 23.000 58.800 23.000 H 55.900 C 55.800 23.000 55.900 23.100 55.900 23.000 V 17.200 C 55.900 17.100 55.800 17.200 55.900 17.200 H 58.800 C 58.855 17.200 58.900 17.155 58.900 17.100 V 13.100 C 58.900 13.045 58.855 13.000 58.800 13.000 H 55.800 H 47.900 C 47.800 13.000 47.900 13.100 47.900 13.000 V 10.100 C 47.900 10.045 47.855 10.000 47.800 10.000 H 41.800 C 41.745 10.000 41.700 10.045 41.700 10.100 V 13.000 C 41.700 13.100 41.800 13.000 41.700 13.000 H 35.900 C 35.800 13.000 35.900 13.100 35.900 13.000 V 10.100 C 35.900 10.045 35.855 10.000 35.800 10.000 H 29.800 C 29.745 10.000 29.700 10.045 29.700 10.100 V 13.000 C 29.700 13.100 29.800 13.000 29.700 13.000 H 21.800 H 18.800 C 18.745 13.000 18.700 13.045 18.700 13.100 V 17.100 C 18.700 17.155 18.745 17.200 18.800 17.200 H 21.700 C 21.800 17.200 21.700 17.100 21.700 17.200 V 23.000 C 21.700 23.100 21.800 23.000 21.700 23.000 H 18.800 C 18.745 23.000 18.700 23.045 18.700 23.100 V 27.100 C 18.700 27.155 18.745 27.200 18.800 27.200 H 21.800" stroke="rgb(0,0,0)" stroke-width="0.20" />
</g>
</svg>